<svg xmlns="http://www.w3.org/2000/svg" viewBox="0 0 380.98 105.19"><defs><style>.cls-1,.cls-2{fill:#fff;}.cls-1{fill-rule:evenodd;}</style></defs><title>lipari-mono</title><g id="Capa_2" data-name="Capa 2"><g id="Capa_1-2" data-name="Capa 1"><path class="cls-1" d="M208.45,44.91h7a2.57,2.57,0,0,0,2.18-2.35c.14-1.33,0-5.41,0-5.41s-.39-2-2-2.44-4.3.08-5.06,1.37-3.59,6.1-3.59,6.1S206,44.46,208.45,44.91ZM159.79,63.39s2-6.35,8.32-6.5l8,0a4.72,4.72,0,0,0,2.9-1.62c1.24-1.48,20.75-30.71,20.75-30.71l4.28-6.21s5.49-10.22,17.85-10.14S236.3,12.33,237,16s3.55,29.59,2.66,42.28c0,0,.18,5.25-6.57,5.78l-22,.08s-5.07.09-9.87-5.31l-3.38-3.29-8.78,10.57s-6.76,7.91-14.4,8S157.92,72.62,159.79,63.39Z"/><path class="cls-1" d="M15.92,6.59S16.28,0,24.41,0H47.88s7.93,2.43,7.25,10.34A11.3,11.3,0,0,0,54.27,13C54,14.28,35.76,51.32,35.76,51.32s-2.62,5.16.45,6.38c0,0,5.48,1.87,7.48-.56a11.75,11.75,0,0,0,2.19-3c.87-1.75,6.49-10.44,6.49-10.44s2.53-4,9.23-3.73c0,0,6.72-.56,5.6,5.92L57.64,65.15s-5.17,9.9-14.07,9.9L5.87,75S-2.6,72.86.81,65.07C3.86,58.08,23,15.49,23,15.49s.84-1.88-2-1.88C20.15,13.6,15.92,12.85,15.92,6.59Z"/><path class="cls-1" d="M103.19,64.85,121.08,27s2.63-6.61,11.87-6.3h42.5s10,.87,5.86,10.12C178,38.3,172.82,49.3,172.82,49.3s-3.53,4.55-7.62,4.55H144.67s-6.3-1.16-8.5-4.25c0,0-.43-.15-.86.75s-9.09,19.2-9.09,19.2-2.49,4.67-9.53,4.67-8.35-.14-8.35-.14S99.67,73.49,103.19,64.85Zm39.06-24.69h6.67c2.44,0,2.82-1.5,2.82-1.5s1.56-3.2,2.14-4.57c1.26-2.94-1.72-2.75-1.72-2.75h-6c-2.25,0-2.77,1.43-2.77,1.43s-1.91,4.21-2.36,5.28A1.47,1.47,0,0,0,142.25,40.16Z"/><path class="cls-1" d="M245.14,55.75l14.36-30.5s1.75-4.52,8.79-4.66h45.43s9.46-.56,7.85,8.68l-7.8,16.66S312,50,309,50c0,0-2.8,1.19-2.2,3.53l4.54,14.5s3.4,6-4.39,6.31c-3.39.11-15.84,0-15.84,0s-6.29-.6-8-5.73l-6.3-14.5s-2.34-2.78-3.81-.88L269.47,61a8.93,8.93,0,0,1-6.61,4,79.6,79.6,0,0,1-12-.31S243.09,63.51,245.14,55.75Zm34.27-17.3c-1.3,1.76.15,1.91.15,1.91h6.75c3.8,0,3.67-2.49,4.54-5.55s-1.77-3.67-1.77-3.67h-6Z"/><path class="cls-1" d="M325.62,39.82s2.22-5.2,9.07-5.2l12.93,0s6.86.71,4.39,7.52a137.9,137.9,0,0,1-6.29,13.55s-3.72,8.55-11.35,8.41H321.08s-7-1.47-3.69-7.37Z"/><path class="cls-1" d="M338.94,20.56c3.76-.14,16.9,0,16.9,0s5.88-.4,4,3.44c-2.87,5.87-3.31,7.73-9.07,7.73l-15.75,0s-5.49,0-2.94-5.13C333.9,22.65,335,20.73,338.94,20.56Z"/><path class="cls-1" d="M80.13,38.12s1.45-3.7,8.3-3.63h13s7.08.65,5.26,5.61c-1.47,4-9.28,18.44-9.28,18.44a11.41,11.41,0,0,1-10.53,6l-13.31-.15S66.47,63.3,69.22,59Z"/><path class="cls-1" d="M89.06,31.67c2,.17,15.12,0,15.12,0s6.27-1.51,7.95-4a21.11,21.11,0,0,0,2.18-3.87s.35-3-3.18-3.21S96,23.1,93.42,23.77s-5,1.52-6.22,4.21S87.05,31.51,89.06,31.67Z"/><path class="cls-2" d="M374.72,18.29a6.39,6.39,0,1,1-6.34,6.38,6.3,6.3,0,0,1,6.34-6.38Zm0,1a5.24,5.24,0,0,0-5.09,5.37,5.23,5.23,0,0,0,5.12,5.39,5.17,5.17,0,0,0,5.09-5.35,5.23,5.23,0,0,0-5.09-5.4h0Zm-1.19,9.07h-1.13v-7.1a11.16,11.16,0,0,1,2-.18,3.75,3.75,0,0,1,2.2.53,1.84,1.84,0,0,1-.72,3.2v.05c.62.11,1.05.68,1.19,1.73a6.43,6.43,0,0,0,.44,1.76H376.3a5.42,5.42,0,0,1-.48-1.81,1.32,1.32,0,0,0-1.53-1.24h-.8v3.06Zm0-3.94h.83c.94,0,1.73-.33,1.73-1.2,0-.62-.46-1.24-1.73-1.24a5.82,5.82,0,0,0-.83.05Z"/><path class="cls-2" d="M1.61,102.22a20.31,20.31,0,0,0,4.69.63c3,0,4.48-1.14,4.48-3.43a3.23,3.23,0,0,0-1.92-3l-4-2.32c-2.37-1.35-3.39-2.91-3.39-5.2,0-3.43,2.53-5.53,6.67-5.53a15.93,15.93,0,0,1,4.72.93l.3.09v1.89A16.59,16.59,0,0,0,8.5,85.5c-2.68,0-4,1-4,3.06,0,1.35.69,2.14,2.77,3.28l3.28,1.8A5.65,5.65,0,0,1,13.88,99c0,3.7-2.73,6.1-7,6.1a20.75,20.75,0,0,1-5.5-1L1.17,104v-2Z"/><path class="cls-2" d="M23.73,89.18C28.27,89.18,31,92.09,31,97c0,5.11-2.77,8.23-7.27,8.23s-7.27-2.91-7.27-7.81C16.42,92.3,19.22,89.18,23.73,89.18Zm0,14.22c2.62,0,4.09-2.25,4.09-6.25S26.35,91,23.73,91s-4.09,2.23-4.09,6.25S21.05,103.4,23.7,103.4Z"/><path class="cls-2" d="M34.46,81.58h3v23.26h-3Z"/><path class="cls-2" d="M54.41,104.83H51.5v-1l-.27.09a28.4,28.4,0,0,1-3.88,1.17c-.18,0-.48,0-.84,0a4.92,4.92,0,0,1-3.72-1.5c-.78-1-1-2.08-1-4.3V89.5h3v9.35c0,1.81.18,2.56.75,3.19a3.41,3.41,0,0,0,2.61.84,13.87,13.87,0,0,0,3.19-.39l.12,0V89.51h3v15.32Z"/><path class="cls-2" d="M69.83,91.76a13.27,13.27,0,0,0-3.49-.45c-3.61,0-5.29,1.92-5.29,6,0,3.82,1.71,5.62,5.29,5.62a18.67,18.67,0,0,0,3.49-.36v1.68l-.27.06q-1.17.31-2.34.54a10.3,10.3,0,0,1-2.31.27c-4.48,0-7.06-2.74-7.06-7.49,0-5.23,2.91-8.35,7.84-8.35a13.22,13.22,0,0,1,3.94.72l.21.06v1.75Z"/><path class="cls-2" d="M74.4,83.35c1.29,0,1.92.57,1.92,1.74s-.63,1.83-2,1.83a1.65,1.65,0,0,1-1.86-1.81C72.48,84,73.14,83.35,74.4,83.35Zm-1.5,6.16h3v15.32h-3Z"/><path class="cls-2" d="M86.66,89.18c4.54,0,7.25,2.91,7.25,7.78,0,5.11-2.76,8.23-7.27,8.23s-7.27-2.91-7.27-7.81C79.36,92.3,82.15,89.18,86.66,89.18Zm0,14.22c2.62,0,4.09-2.25,4.09-6.25S89.28,91,86.66,91s-4.08,2.23-4.08,6.25S84,103.4,86.63,103.4Z"/><path class="cls-2" d="M97.39,89.51h2.91v1l.27-.09a21.38,21.38,0,0,1,3.88-1.14,4.67,4.67,0,0,1,.81-.06,4.83,4.83,0,0,1,3.72,1.5c.78.93,1.09,2.07,1.09,4.29v9.86h-3V95.48c0-1.77-.18-2.55-.75-3.19a3.42,3.42,0,0,0-2.62-.84,15.18,15.18,0,0,0-3.19.39l-.12,0v12.95h-3V89.51Z"/><path class="cls-2" d="M125.85,104.24l-.24.06c-1.68.39-3.1.63-4.24.78a7.32,7.32,0,0,1-.84,0,7.84,7.84,0,0,1-5-1.65c-1.41-1.26-2.1-3.19-2.1-5.86,0-5.23,2.65-8.38,7-8.38,2.94,0,4.9,1.35,5.71,4a13.13,13.13,0,0,1,.45,4.18h-10v.27c0,3.72,1.59,5.32,5.29,5.32a31.29,31.29,0,0,0,3.82-.3l.21-.06v1.65Zm-2.46-8.81c0-3.1-1-4.42-3.22-4.42-2.38,0-3.61,1.53-3.63,4.6h6.85Z"/><path class="cls-2" d="M138.21,91.82a13,13,0,0,0-3.7-.54c-1.72,0-2.62.63-2.62,1.86,0,.84.48,1.42,1.81,2.08l2.76,1.41a3.94,3.94,0,0,1,2.43,3.82c0,2.86-2.16,4.66-5.65,4.66a18.33,18.33,0,0,1-4.18-.72l-.21-.06v-1.84a16.29,16.29,0,0,0,4.21.58c2,0,3-.75,3-2.16A2,2,0,0,0,134.66,99L132,97.61c-2-1-2.88-2.25-2.88-4,0-2.64,2-4.33,5.08-4.33a14.09,14.09,0,0,1,3.7.69l.36.09v1.79Z"/><path class="cls-2" d="M159.43,104.83v-.9a2.78,2.78,0,0,1-.3.09,20.53,20.53,0,0,1-3.34,1,5.73,5.73,0,0,1-.84.06c-3.79,0-6.28-3-6.28-7.54,0-4.72,3.15-8.26,7.39-8.26a7.94,7.94,0,0,1,3.34.75v-8.5h3v23.26h-3Zm0-13.22a12,12,0,0,0-2.43-.24c-3.19,0-5.08,2.22-5.08,5.92,0,3.54,1.72,5.56,4.75,5.56a14,14,0,0,0,2.77-.3V91.61Z"/><path class="cls-2" d="M178.3,104.24l-.24.06c-1.68.39-3.1.63-4.24.78a7.32,7.32,0,0,1-.84,0,7.84,7.84,0,0,1-5-1.65c-1.41-1.26-2.1-3.19-2.1-5.86,0-5.23,2.64-8.38,7-8.38,2.95,0,4.9,1.35,5.71,4a13.13,13.13,0,0,1,.45,4.18H169v.27c0,3.72,1.59,5.32,5.29,5.32a31.44,31.44,0,0,0,3.82-.3l.21-.06Zm-2.46-8.81c0-3.1-1-4.42-3.21-4.42-2.38,0-3.61,1.53-3.64,4.6h6.85Z"/><path class="cls-2" d="M201.24,104.24l-.24.06c-1.68.39-3.1.63-4.24.78a7.32,7.32,0,0,1-.84,0,7.84,7.84,0,0,1-5-1.65c-1.41-1.26-2.1-3.19-2.1-5.86,0-5.23,2.64-8.38,7-8.38,2.95,0,4.9,1.35,5.71,4a12.56,12.56,0,0,1,.45,4.18h-10v.27c0,3.72,1.59,5.32,5.29,5.32a31.44,31.44,0,0,0,3.82-.3l.21-.06Zm-2.47-8.81c0-3.1-1-4.42-3.22-4.42s-3.6,1.53-3.63,4.6h6.85Z"/><path class="cls-2" d="M205.41,89.51h2.91v1l.27-.09a21.61,21.61,0,0,1,3.88-1.14,4.67,4.67,0,0,1,.81-.06,4.86,4.86,0,0,1,3.73,1.5c.78.93,1.08,2.07,1.08,4.29v9.86h-3V95.48c0-1.77-.18-2.55-.75-3.19a3.42,3.42,0,0,0-2.62-.84,15.26,15.26,0,0,0-3.19.39l-.12,0v12.95h-3V89.51Z"/><path class="cls-2" d="M225.4,104.83l-5.53-15.32h3.43l4,12.77,4.18-12.77h2.82l-5.77,15.32Z"/><path class="cls-2" d="M244.42,104.83v-1l-.27.09a26.27,26.27,0,0,1-3,1A6.09,6.09,0,0,1,240,105a4.25,4.25,0,0,1-4.57-4.39c0-2.41,1.23-3.85,3.69-4.36a30.39,30.39,0,0,1,4.12-.3h1V94c0-1.92-.81-2.62-3-2.62a27.44,27.44,0,0,0-4.53.48V90.19l.21-.06a43.14,43.14,0,0,1,4.69-.91,6,6,0,0,1,.78,0,5.2,5.2,0,0,1,3.69,1.23c.81.78,1.09,1.77,1.09,4.06v10.34h-2.85Zm-.78-7.17a9.73,9.73,0,0,0-3.82.57,2.25,2.25,0,0,0-1.23,2.13c0,1.68,1,2.56,3.1,2.56a11.86,11.86,0,0,0,2.65-.33v-5Z"/><path class="cls-2" d="M259.54,91.82a13,13,0,0,0-3.7-.54c-1.71,0-2.62.63-2.62,1.86,0,.84.48,1.42,1.81,2.08l2.77,1.41a3.94,3.94,0,0,1,2.43,3.82c0,2.86-2.16,4.66-5.65,4.66a18.33,18.33,0,0,1-4.18-.72l-.21-.06v-1.84a16.23,16.23,0,0,0,4.21.58c2,0,3-.75,3-2.16A2,2,0,0,0,256,99l-2.71-1.38c-2-1-2.89-2.25-2.89-4,0-2.64,2-4.33,5.08-4.33a14.09,14.09,0,0,1,3.7.69l.36.09v1.79Z"/><path class="cls-2" d="M271.71,104.83v-1l-.27.09a25.62,25.62,0,0,1-3,1,6,6,0,0,1-1.14.09,4.25,4.25,0,0,1-4.57-4.39c0-2.41,1.23-3.85,3.69-4.36a30.39,30.39,0,0,1,4.12-.3h1.05V94c0-1.92-.81-2.62-3-2.62a27.66,27.66,0,0,0-4.54.48V90.19l.21-.06a42.69,42.69,0,0,1,4.69-.91,6,6,0,0,1,.78,0,5.2,5.2,0,0,1,3.69,1.23c.81.78,1.08,1.77,1.08,4.06v10.34h-2.84Zm-.78-7.17a9.73,9.73,0,0,0-3.82.57,2.25,2.25,0,0,0-1.23,2.13c0,1.68,1.05,2.56,3.1,2.56a11.7,11.7,0,0,0,2.64-.33v-5Z"/><path class="cls-2" d="M288.67,104.83v-.9a2.78,2.78,0,0,1-.3.09,20.53,20.53,0,0,1-3.34,1,5.73,5.73,0,0,1-.84.06c-3.78,0-6.28-3-6.28-7.54,0-4.72,3.16-8.26,7.4-8.26a7.94,7.94,0,0,1,3.34.75v-8.5h3v23.26h-3Zm0-13.22a11.9,11.9,0,0,0-2.43-.24c-3.19,0-5.08,2.22-5.08,5.92,0,3.54,1.72,5.56,4.75,5.56a14.07,14.07,0,0,0,2.77-.3V91.61Z"/><path class="cls-2" d="M302.37,89.18c4.54,0,7.24,2.91,7.24,7.78,0,5.11-2.76,8.23-7.27,8.23s-7.28-2.91-7.28-7.81C295.07,92.3,297.86,89.18,302.37,89.18Zm0,14.22c2.61,0,4.09-2.25,4.09-6.25S305,91,302.37,91s-4.09,2.23-4.09,6.25S299.7,103.4,302.34,103.4Z"/></g></g></svg>