<?xml version="1.0" encoding="utf-8"?>
<!-- Generator: Adobe Illustrator 25.2.3, SVG Export Plug-In . SVG Version: 6.00 Build 0)  -->
<svg version="1.1" id="Capa_1" xmlns="http://www.w3.org/2000/svg" xmlns:xlink="http://www.w3.org/1999/xlink" x="0px" y="0px"
	 viewBox="0 0 462 177" style="enable-background:new 0 0 462 177;" xml:space="preserve">
<style type="text/css">
	.st0{fill:#49534E;}
	.st1{fill:#487629;}
</style>
<g>
	<path class="st0" d="M137.17,45.64h30.1c6.6,0,11.63,1.84,15.09,5.53c3.46,3.69,5.2,8.52,5.2,14.51c0,3.44-0.87,6.53-2.62,9.27
		c-1.75,2.74-4.04,5.06-6.86,6.94c1.05,0.72,1.8,1.64,2.24,2.74l6.32,14.55h-20.95l-5.24-11.89c-0.28-0.67-0.58-1.12-0.91-1.37
		c-0.34-0.25-0.81-0.38-1.42-0.38h-0.83v13.64h-20.12V45.64z M162.2,69.84c3.27,0,4.9-1.39,4.9-4.16c0-1.49-0.38-2.59-1.12-3.29
		c-0.75-0.69-1.9-1.04-3.45-1.04h-5.24v8.48H162.2z"/>
	<path class="st0" d="M198.27,93.53c-4.85-4.33-7.28-11.36-7.28-21.12c0-9.75,2.43-16.8,7.28-21.12c4.85-4.32,11.98-6.49,21.41-6.49
		c9.42,0,16.56,2.16,21.41,6.49c4.85,4.32,7.27,11.36,7.27,21.12c0,9.76-2.42,16.79-7.27,21.12c-4.85,4.32-11.99,6.49-21.41,6.49
		C210.25,100.02,203.12,97.85,198.27,93.53z M225.95,80.6c1.25-1.58,1.87-4.31,1.87-8.19c0-3.88-0.62-6.61-1.87-8.19
		c-1.24-1.58-3.34-2.37-6.27-2.37c-2.94,0-5.03,0.79-6.28,2.37c-1.25,1.58-1.87,4.31-1.87,8.19c0,3.88,0.62,6.61,1.87,8.19
		c1.24,1.58,3.34,2.37,6.28,2.37C222.62,82.97,224.71,82.18,225.95,80.6z"/>
	<path class="st0" d="M284.9,93.03c-5.4-4.66-8.11-11.53-8.11-20.62s2.67-15.96,8.02-20.62c5.35-4.65,13.29-6.98,23.82-6.98
		c3.27,0,6.22,0.23,8.86,0.71c2.63,0.48,5.3,1.21,8.02,2.2v17.54c-5.04-2.33-10.22-3.49-15.55-3.49c-4.16,0-7.3,0.81-9.44,2.42
		c-2.13,1.61-3.2,4.35-3.2,8.23c0,3.82,1.1,6.56,3.28,8.19c2.19,1.64,5.37,2.45,9.52,2.45c5.32,0,10.5-1.16,15.55-3.49v17.54
		c-2.72,1-5.39,1.73-8.03,2.2c-2.63,0.47-5.58,0.71-8.85,0.71C298.27,100.02,290.3,97.69,284.9,93.03z"/>
	<path class="st0" d="M346.71,45.64h20.87l20.62,53.54h-20.95l-3.82-9.98h-12.55l-3.82,9.98H326.1L346.71,45.64z M361.18,75.49
		l-4.07-10.23l-4.07,10.23H361.18z"/>
	<path class="st1" d="M75.87,45.58v53.69h53.69V45.58H75.87z M120.25,89.96H85.18V54.89h35.07V89.96z"/>
	<rect x="252.52" y="45.64" class="st0" width="20.12" height="53.54"/>
	<g>
		<path class="st0" d="M391.16,51.92c0,3.99-3.2,7.15-7.28,7.15s-7.32-3.16-7.32-7.15c0-3.99,3.25-7.11,7.36-7.11
			C387.95,44.81,391.16,47.93,391.16,51.92z M378.38,51.92c0,3.16,2.38,5.68,5.54,5.68c3.08,0.04,5.42-2.51,5.42-5.63
			c0-3.16-2.34-5.72-5.5-5.72C380.76,46.24,378.38,48.8,378.38,51.92z M382.75,55.6h-1.65v-7.11c0.65-0.09,1.56-0.22,2.73-0.22
			c1.34,0,1.95,0.22,2.43,0.56c0.43,0.3,0.74,0.82,0.74,1.52c0,0.86-0.65,1.43-1.48,1.69v0.09c0.7,0.22,1.04,0.78,1.26,1.73
			c0.22,1.08,0.39,1.47,0.52,1.73h-1.73c-0.22-0.26-0.35-0.87-0.56-1.73c-0.13-0.74-0.57-1.09-1.48-1.09h-0.78V55.6z M382.8,51.61
			h0.78c0.91,0,1.64-0.3,1.64-1.04c0-0.66-0.48-1.09-1.52-1.09c-0.43,0-0.73,0.05-0.91,0.09V51.61z"/>
	</g>
	<g>
		<path class="st0" d="M140.72,129.36c-1.3-1.28-1.94-3.14-1.94-5.58c0-2.47,0.7-4.34,2.09-5.6c1.4-1.27,3.32-1.9,5.77-1.9
			c0.97,0,1.8,0.07,2.48,0.21c0.68,0.14,1.34,0.37,1.99,0.67v2.46c-1.05-0.53-2.33-0.79-3.82-0.79c-1.72,0-3.01,0.38-3.87,1.15
			c-0.86,0.77-1.29,2.03-1.29,3.8c0,1.74,0.4,3.01,1.2,3.79c0.8,0.79,2.1,1.19,3.9,1.19c1.44,0,2.74-0.27,3.92-0.82v2.52
			c-1.34,0.55-2.9,0.82-4.68,0.82C143.93,131.28,142.01,130.64,140.72,129.36z"/>
		<path class="st0" d="M154.14,130.14c-0.97-0.76-1.46-1.85-1.46-3.26s0.48-2.53,1.44-3.35c0.96-0.82,2.4-1.23,4.33-1.23h4.62v-0.64
			c0-0.71-0.1-1.26-0.32-1.66c-0.21-0.39-0.6-0.68-1.17-0.86c-0.57-0.18-1.38-0.27-2.43-0.27c-1.7,0-3.3,0.25-4.77,0.76v-2.46
			c0.69-0.26,1.5-0.48,2.43-0.64c0.93-0.16,1.91-0.24,2.95-0.24c2.15,0,3.76,0.44,4.84,1.31c1.08,0.87,1.62,2.25,1.62,4.13v9.26
			h-2.82l-0.21-1.46c-0.61,0.59-1.35,1.03-2.22,1.32c-0.87,0.29-1.93,0.44-3.19,0.44C156.33,131.28,155.11,130.9,154.14,130.14z
			 M161.21,128.42c0.75-0.32,1.37-0.78,1.85-1.37v-2.52h-4.56c-0.97,0-1.67,0.18-2.11,0.54c-0.43,0.37-0.65,0.94-0.65,1.73
			c0,0.73,0.24,1.26,0.73,1.59c0.48,0.33,1.21,0.5,2.19,0.5C159.61,128.91,160.46,128.75,161.21,128.42z"/>
		<path class="st0" d="M167.68,137.59v-2.4c0.62,0.2,1.24,0.3,1.85,0.3c0.95,0,1.61-0.17,1.99-0.5c0.37-0.33,0.56-0.91,0.56-1.72
			V119.1h-2.19l0.31-2.52h5.16v17c0,1.4-0.4,2.49-1.2,3.3c-0.8,0.8-1.96,1.2-3.48,1.2C169.51,138.08,168.51,137.92,167.68,137.59z
			 M171.75,110.84h3.61v2.73h-3.61V110.84z"/>
		<path class="st0" d="M180.04,130.14c-0.97-0.76-1.46-1.85-1.46-3.26s0.48-2.53,1.44-3.35c0.96-0.82,2.4-1.23,4.33-1.23h4.62v-0.64
			c0-0.71-0.11-1.26-0.32-1.66c-0.22-0.39-0.61-0.68-1.17-0.86c-0.57-0.18-1.38-0.27-2.43-0.27c-1.7,0-3.29,0.25-4.77,0.76v-2.46
			c0.69-0.26,1.5-0.48,2.43-0.64c0.93-0.16,1.91-0.24,2.94-0.24c2.15,0,3.77,0.44,4.85,1.31c1.08,0.87,1.62,2.25,1.62,4.13v9.26
			h-2.82l-0.21-1.46c-0.61,0.59-1.35,1.03-2.22,1.32c-0.87,0.29-1.93,0.44-3.19,0.44C182.22,131.28,181.01,130.9,180.04,130.14z
			 M187.12,128.42c0.75-0.32,1.36-0.78,1.85-1.37v-2.52h-4.55c-0.97,0-1.67,0.18-2.11,0.54c-0.43,0.37-0.65,0.94-0.65,1.73
			c0,0.73,0.24,1.26,0.73,1.59c0.49,0.33,1.21,0.5,2.19,0.5C185.51,128.91,186.36,128.75,187.12,128.42z"/>
		<path class="st0" d="M197.77,131.08c-0.91-0.13-1.66-0.31-2.25-0.53v-2.79c0.67,0.26,1.41,0.47,2.23,0.61
			c0.82,0.14,1.62,0.21,2.42,0.21c1.17,0,1.99-0.1,2.46-0.3c0.47-0.2,0.7-0.6,0.7-1.19c0-0.53-0.22-0.91-0.64-1.17
			c-0.43-0.25-1.23-0.56-2.4-0.93l-0.91-0.3c-1.45-0.48-2.52-1.03-3.19-1.62c-0.67-0.6-1-1.48-1-2.66c0-1.36,0.48-2.39,1.46-3.08
			c0.97-0.7,2.49-1.05,4.55-1.05c0.79,0,1.57,0.06,2.32,0.19c0.76,0.12,1.41,0.27,1.96,0.45v2.77c-0.55-0.22-1.16-0.39-1.84-0.52
			c-0.68-0.12-1.32-0.18-1.93-0.18c-1.11,0-1.92,0.1-2.43,0.29c-0.5,0.19-0.76,0.55-0.76,1.08c0,0.46,0.19,0.81,0.57,1.05
			c0.38,0.24,1.15,0.53,2.28,0.9l0.67,0.21c1.17,0.36,2.08,0.73,2.73,1.11c0.65,0.38,1.12,0.83,1.41,1.37
			c0.29,0.53,0.44,1.23,0.44,2.08c0,2.81-2.01,4.22-6.04,4.22C199.63,131.28,198.68,131.21,197.77,131.08z"/>
		<path class="st0" d="M220.58,116.58h5.29l0.15,1.15c1.42-0.97,2.98-1.46,4.68-1.46c0.89,0,1.61,0.13,2.16,0.38
			c0.55,0.25,0.98,0.64,1.31,1.17c1.48-1.03,3.18-1.55,5.1-1.55c1.68,0,2.92,0.44,3.71,1.32c0.79,0.88,1.19,2.22,1.19,4.02v9.36
			h-5.62v-8.69c0-0.65-0.14-1.11-0.4-1.38c-0.26-0.28-0.7-0.41-1.3-0.41c-0.37,0-0.72,0.08-1.06,0.23
			c-0.34,0.15-0.64,0.36-0.88,0.62c0.05,0.34,0.06,0.85,0.06,1.52v8.11h-5.29v-8.78c0-0.61-0.1-1.05-0.32-1.31
			c-0.21-0.26-0.59-0.39-1.14-0.39c-0.71,0-1.4,0.34-2.09,1.03v9.45h-5.53V116.58z"/>
		<path class="st0" d="M247.98,129.83c-0.94-0.96-1.41-2.35-1.41-4.17v-9.08h5.71v8.62c0,0.65,0.16,1.12,0.47,1.43
			c0.31,0.3,0.79,0.46,1.44,0.46c0.44,0,0.89-0.1,1.34-0.3c0.44-0.2,0.81-0.46,1.09-0.76v-9.44h5.71v14.39h-5.34l-0.15-1.1
			c-1.32,0.93-2.95,1.4-4.89,1.4C250.25,131.28,248.93,130.8,247.98,129.83z"/>
		<path class="st0" d="M266.78,136.2c-0.56-0.08-1.11-0.24-1.66-0.46v-3.89c0.53,0.2,1.15,0.31,1.85,0.31c0.79,0,1.38-0.1,1.77-0.31
			c0.38-0.2,0.77-0.61,1.15-1.21l-6.5-14.06h5.98l3.37,8.47l3.28-8.47h5.95l-5.32,13.03c-0.89,2.2-1.95,3.87-3.17,5.01
			c-1.23,1.13-2.78,1.7-4.66,1.7C268.01,136.32,267.34,136.28,266.78,136.2z"/>
		<path class="st0" d="M296.16,119.16h-2.1v-2.58h2.1v-1.77c0-1.46,0.41-2.62,1.23-3.49c0.82-0.87,2-1.31,3.53-1.31
			c1.04,0,2.01,0.17,2.95,0.52v2.37c-0.62-0.22-1.27-0.33-1.91-0.33c-0.95,0-1.61,0.17-1.98,0.5c-0.36,0.33-0.54,0.92-0.54,1.77
			v1.73h3.76l-0.15,2.58h-3.61v11.81h-3.28V119.16z"/>
		<path class="st0" d="M305.46,129.83c-0.92-0.96-1.38-2.35-1.38-4.17v-9.08h3.31v9.08c0,1.07,0.26,1.86,0.79,2.37
			c0.53,0.51,1.34,0.76,2.43,0.76c0.79,0,1.53-0.15,2.22-0.44c0.69-0.29,1.29-0.71,1.82-1.23v-10.54h3.28v14.39h-3.01l-0.15-1.49
			c-1.52,1.19-3.3,1.79-5.34,1.79C307.71,131.28,306.39,130.8,305.46,129.83z"/>
		<path class="st0" d="M323.21,129.39c-1.36-1.25-2.04-3.14-2.04-5.65c0-2.37,0.6-4.2,1.79-5.51c1.19-1.3,2.97-1.96,5.31-1.96
			c2.13,0,3.76,0.56,4.89,1.67c1.14,1.11,1.7,2.6,1.7,4.47v2.67h-10.54c0.16,1.38,0.66,2.34,1.49,2.87
			c0.83,0.54,2.14,0.81,3.92,0.81c0.73,0,1.48-0.07,2.24-0.21c0.76-0.14,1.43-0.32,2.02-0.55v2.43c-1.28,0.57-2.91,0.85-4.92,0.85
			C326.52,131.28,324.57,130.65,323.21,129.39z M331.96,122.93v-1c0-1.03-0.28-1.81-0.85-2.35c-0.57-0.53-1.48-0.8-2.73-0.8
			c-1.49,0-2.54,0.32-3.14,0.97c-0.6,0.65-0.9,1.71-0.9,3.19H331.96z"/>
		<path class="st0" d="M338.09,116.58h3.03l0.19,1.67c0.69-0.45,1.51-0.85,2.46-1.22c0.95-0.36,1.89-0.62,2.82-0.76v2.52
			c-0.87,0.16-1.81,0.41-2.82,0.75c-1.01,0.33-1.8,0.68-2.37,1.05v10.39h-3.31V116.58z"/>
		<path class="st0" d="M351.3,130.08c-0.77-0.8-1.15-1.93-1.15-3.39v-7.53h-2.13v-2.58h2.13v-3.31l3.28-1v4.31h3.82l-0.21,2.58
			h-3.61v7.35c0,0.83,0.19,1.41,0.56,1.74c0.37,0.34,1,0.5,1.9,0.5c0.55,0,1.13-0.1,1.73-0.3v2.34c-0.79,0.32-1.75,0.48-2.89,0.48
			C353.21,131.28,352.07,130.88,351.3,130.08z"/>
		<path class="st0" d="M361.68,129.39c-1.35-1.25-2.03-3.14-2.03-5.65c0-2.37,0.6-4.2,1.79-5.51c1.19-1.3,2.96-1.96,5.31-1.96
			c2.12,0,3.75,0.56,4.89,1.67c1.14,1.11,1.7,2.6,1.7,4.47v2.67h-10.54c0.16,1.38,0.66,2.34,1.49,2.87
			c0.83,0.54,2.13,0.81,3.91,0.81c0.73,0,1.47-0.07,2.23-0.21c0.76-0.14,1.43-0.32,2.02-0.55v2.43c-1.28,0.57-2.91,0.85-4.92,0.85
			C364.99,131.28,363.04,130.65,361.68,129.39z M370.43,122.93v-1c0-1.03-0.29-1.81-0.85-2.35c-0.57-0.53-1.48-0.8-2.73-0.8
			c-1.5,0-2.54,0.32-3.15,0.97c-0.59,0.65-0.89,1.71-0.89,3.19H370.43z"/>
		<path class="st0" d="M378.54,131.08c-0.91-0.13-1.66-0.31-2.24-0.53v-2.79c0.67,0.26,1.41,0.47,2.23,0.61
			c0.82,0.14,1.62,0.21,2.41,0.21c1.18,0,2-0.1,2.46-0.3c0.46-0.2,0.7-0.6,0.7-1.19c0-0.53-0.21-0.91-0.64-1.17
			c-0.43-0.25-1.23-0.56-2.4-0.93l-0.91-0.3c-1.46-0.48-2.52-1.03-3.19-1.62c-0.67-0.6-1-1.48-1-2.66c0-1.36,0.48-2.39,1.46-3.08
			c0.97-0.7,2.49-1.05,4.55-1.05c0.79,0,1.57,0.06,2.33,0.19c0.76,0.12,1.41,0.27,1.96,0.45v2.77c-0.54-0.22-1.16-0.39-1.84-0.52
			c-0.68-0.12-1.32-0.18-1.93-0.18c-1.11,0-1.92,0.1-2.43,0.29c-0.51,0.19-0.76,0.55-0.76,1.08c0,0.46,0.19,0.81,0.58,1.05
			c0.38,0.24,1.14,0.53,2.27,0.9l0.67,0.21c1.18,0.36,2.09,0.73,2.73,1.11c0.65,0.38,1.12,0.83,1.41,1.37
			c0.29,0.53,0.44,1.23,0.44,2.08c0,2.81-2.02,4.22-6.05,4.22C380.39,131.28,379.45,131.21,378.54,131.08z"/>
	</g>
</g>
</svg>
