<?xml version="1.0" encoding="utf-8"?>
<!-- Generator: Adobe Illustrator 25.2.3, SVG Export Plug-In . SVG Version: 6.00 Build 0)  -->
<svg version="1.1" id="Capa_1" xmlns="http://www.w3.org/2000/svg" xmlns:xlink="http://www.w3.org/1999/xlink" x="0px" y="0px"
	 viewBox="0 0 462 177" style="enable-background:new 0 0 462 177;" xml:space="preserve">
<style type="text/css">
	.st0{fill:#00ADEE;}
	.st1{clip-path:url(#SVGID_2_);fill:url(#SVGID_3_);}
	.st2{clip-path:url(#SVGID_5_);fill:url(#SVGID_6_);}
	.st3{clip-path:url(#SVGID_8_);fill:url(#SVGID_9_);}
	.st4{clip-path:url(#SVGID_11_);fill:url(#SVGID_12_);}
	.st5{clip-path:url(#SVGID_14_);fill:url(#SVGID_15_);}
	.st6{clip-path:url(#SVGID_17_);fill:url(#SVGID_18_);}
	.st7{fill:#005AA9;}
</style>
<g>
	<g>
		<g>
			<path class="st0" d="M404.29,41.57c0,1.08-0.17,2.03-0.53,2.87c-0.35,0.84-0.82,1.54-1.41,2.12c-0.59,0.59-1.29,1.03-2.06,1.34
				c-0.78,0.31-1.6,0.46-2.47,0.46c-0.85,0-1.66-0.15-2.44-0.46c-0.78-0.31-1.47-0.75-2.06-1.34c-0.59-0.58-1.07-1.29-1.43-2.12
				c-0.35-0.84-0.53-1.79-0.53-2.87c0-1.06,0.18-2.01,0.53-2.86c0.36-0.84,0.83-1.55,1.43-2.13c0.59-0.58,1.28-1.03,2.06-1.34
				c0.78-0.3,1.6-0.46,2.44-0.46c0.86,0,1.69,0.15,2.47,0.46c0.78,0.3,1.47,0.75,2.06,1.34c0.59,0.58,1.06,1.29,1.41,2.13
				C404.12,39.55,404.29,40.5,404.29,41.57z M402.66,41.57c0-0.79-0.12-1.5-0.36-2.15c-0.24-0.64-0.57-1.19-1-1.66
				c-0.43-0.46-0.94-0.81-1.53-1.07c-0.59-0.25-1.24-0.37-1.95-0.37c-0.71,0-1.36,0.12-1.95,0.37c-0.59,0.25-1.1,0.61-1.52,1.07
				c-0.42,0.47-0.76,1.02-0.99,1.66c-0.24,0.65-0.36,1.36-0.36,2.15c0,0.79,0.12,1.51,0.36,2.15c0.24,0.65,0.57,1.21,0.99,1.67
				c0.42,0.46,0.93,0.81,1.52,1.07c0.59,0.25,1.24,0.38,1.95,0.38c0.71,0,1.36-0.12,1.95-0.38c0.59-0.25,1.1-0.61,1.53-1.07
				c0.43-0.46,0.76-1.02,1-1.67C402.55,43.07,402.66,42.36,402.66,41.57z M399.33,45.03c-0.25-0.52-0.5-1-0.75-1.43
				c-0.25-0.43-0.49-0.79-0.72-1.08h-1.01v2.51h-1.57V38.2c0.39-0.1,0.77-0.17,1.15-0.21c0.37-0.04,0.71-0.05,0.99-0.05
				c1.04,0,1.82,0.19,2.35,0.58c0.53,0.39,0.8,0.97,0.8,1.77c0,0.43-0.1,0.79-0.31,1.11c-0.21,0.32-0.51,0.57-0.89,0.74
				c0.25,0.37,0.52,0.79,0.81,1.26c0.29,0.48,0.57,1.02,0.85,1.65H399.33z M396.85,41.25h0.53c0.49,0,0.87-0.07,1.16-0.19
				c0.29-0.14,0.43-0.4,0.43-0.8c0-0.35-0.14-0.6-0.4-0.74c-0.27-0.14-0.61-0.21-1.02-0.21c-0.12,0-0.23,0-0.33,0
				c-0.1,0-0.23,0.01-0.36,0.03V41.25z"/>
		</g>
	</g>
	<g>
		<defs>
			<path id="SVGID_1_" d="M75.62,55.34c1.16-0.34,2.44-0.74,3.84-1.18c1.4-0.44,2.97-0.85,4.71-1.23c1.74-0.38,3.68-0.68,5.84-0.92
				c2.14-0.23,4.58-0.36,7.31-0.36c8.06,0,13.59,2.33,16.59,6.96c3,4.65,3.51,10.99,1.53,19.05l-6.96,29.07H93.23l6.75-28.47
				c0.42-1.77,0.73-3.49,0.98-5.17c0.24-1.67,0.22-3.14-0.05-4.4c-0.28-1.26-0.91-2.29-1.9-3.07c-0.99-0.78-2.51-1.18-4.55-1.18
				c-1.98,0-4,0.2-6.05,0.62l-9.93,41.67H63.23L75.62,55.34z"/>
		</defs>
		<clipPath id="SVGID_2_">
			<use xlink:href="#SVGID_1_"  style="overflow:visible;"/>
		</clipPath>
		<linearGradient id="SVGID_3_" gradientUnits="userSpaceOnUse" x1="48.2489" y1="77.6432" x2="399.3962" y2="77.6432">
			<stop  offset="0" style="stop-color:#002F66"/>
			<stop  offset="1" style="stop-color:#00ADEE"/>
		</linearGradient>
		<rect x="48.25" y="28.44" class="st1" width="351.15" height="98.4"/>
	</g>
	<g>
		<defs>
			<path id="SVGID_4_" d="M122.31,85.65c0-4.37,0.77-8.6,2.3-12.7c1.53-4.1,3.7-7.73,6.5-10.91c2.8-3.17,6.19-5.73,10.19-7.68
				c3.99-1.95,8.41-2.92,13.26-2.92c2.38,0,4.6,0.34,6.65,1.02c2.05,0.68,3.85,1.67,5.38,2.97c1.54,1.29,2.73,2.88,3.58,4.75
				c0.85,1.88,1.28,4.01,1.28,6.4c0,3.82-0.85,7.06-2.55,9.72c-1.71,2.67-4.08,4.83-7.12,6.5c-3.04,1.67-6.64,2.89-10.8,3.64
				c-4.16,0.75-8.7,1.13-13.61,1.13c0.48,2.86,1.52,4.9,3.12,6.09c1.6,1.19,4.15,1.79,7.63,1.79c2.19,0,4.4-0.19,6.66-0.57
				c2.25-0.38,4.36-0.94,6.35-1.69l1.13,11.98c-1.91,0.75-4.35,1.43-7.32,2.05c-2.97,0.62-6.2,0.92-9.68,0.92
				c-4.24,0-7.8-0.59-10.7-1.79c-2.9-1.19-5.25-2.81-7.07-4.86c-1.81-2.05-3.12-4.44-3.94-7.17
				C122.71,91.62,122.31,88.71,122.31,85.65z M152.1,63.53c-3.49,0-6.54,1.24-9.16,3.73c-2.63,2.49-4.35,5.79-5.17,9.88
				c4.23-0.14,7.64-0.49,10.24-1.07c2.6-0.58,4.61-1.28,6.04-2.1c1.43-0.82,2.39-1.7,2.87-2.66c0.48-0.96,0.72-1.91,0.72-2.87
				C157.63,65.17,155.79,63.53,152.1,63.53z"/>
		</defs>
		<clipPath id="SVGID_5_">
			<use xlink:href="#SVGID_4_"  style="overflow:visible;"/>
		</clipPath>
		<linearGradient id="SVGID_6_" gradientUnits="userSpaceOnUse" x1="48.2489" y1="77.6432" x2="399.3962" y2="77.6432">
			<stop  offset="0" style="stop-color:#002F66"/>
			<stop  offset="1" style="stop-color:#00ADEE"/>
		</linearGradient>
		<rect x="48.25" y="28.44" class="st2" width="351.15" height="98.4"/>
	</g>
	<g>
		<defs>
			<path id="SVGID_7_" d="M195.81,108.17c-3.61,0-6.75-0.54-9.41-1.63c-2.66-1.09-4.87-2.63-6.61-4.61
				c-1.74-1.98-3.05-4.32-3.94-7.02c-0.89-2.69-1.33-5.68-1.33-8.96c0-4.09,0.67-8.19,2-12.28c1.33-4.1,3.29-7.78,5.88-11.06
				c2.59-3.27,5.77-5.96,9.52-8.03c3.75-2.08,8.06-3.12,12.9-3.12c3.55,0,6.67,0.55,9.37,1.64c2.7,1.09,4.92,2.63,6.66,4.61
				c1.73,1.98,3.05,4.32,3.93,7.01c0.89,2.7,1.34,5.68,1.34,8.96c0,4.1-0.65,8.19-1.94,12.28c-1.3,4.1-3.21,7.78-5.73,11.06
				c-2.53,3.27-5.69,5.96-9.47,8.03C205.19,107.12,200.8,108.17,195.81,108.17z M203.4,64.35c-2.25,0-4.23,0.65-5.94,1.94
				c-1.71,1.3-3.14,2.94-4.3,4.91c-1.16,1.98-2.03,4.15-2.61,6.5c-0.58,2.35-0.87,4.6-0.87,6.71c0,3.48,0.54,6.16,1.64,8.04
				c1.09,1.87,3.07,2.81,5.94,2.81c2.25,0,4.23-0.65,5.94-1.95c1.7-1.29,3.14-2.94,4.3-4.91c1.16-1.98,2.03-4.15,2.61-6.5
				c0.58-2.36,0.87-4.59,0.87-6.7c0-3.48-0.55-6.16-1.64-8.04C208.24,65.29,206.26,64.35,203.4,64.35z"/>
		</defs>
		<clipPath id="SVGID_8_">
			<use xlink:href="#SVGID_7_"  style="overflow:visible;"/>
		</clipPath>
		<linearGradient id="SVGID_9_" gradientUnits="userSpaceOnUse" x1="48.2489" y1="77.6432" x2="399.3962" y2="77.6432">
			<stop  offset="0" style="stop-color:#002F66"/>
			<stop  offset="1" style="stop-color:#00ADEE"/>
		</linearGradient>
		<rect x="48.25" y="28.44" class="st3" width="351.15" height="98.4"/>
	</g>
	<g>
		<defs>
			<path id="SVGID_10_" d="M240.56,106.74c-1.78-6.82-3.38-14.79-4.82-23.91c-1.43-9.11-2.42-19.09-2.96-29.94h15.77
				c0.06,2.66,0.16,5.58,0.3,8.75c0.14,3.18,0.31,6.37,0.51,9.57c0.21,3.22,0.44,6.34,0.72,9.37c0.27,3.04,0.58,5.78,0.92,8.24
				c1.5-2.05,3.19-4.57,5.07-7.58c1.87-3,3.7-6.14,5.48-9.42c1.77-3.28,3.41-6.57,4.92-9.88c1.5-3.31,2.66-6.33,3.48-9.06h16.18
				c-1.78,4.85-3.98,9.83-6.6,14.95c-2.63,5.12-5.44,10.07-8.45,14.84c-3.01,4.77-6.06,9.25-9.16,13.41
				c-3.1,4.16-5.99,7.72-8.65,10.65H240.56z"/>
		</defs>
		<clipPath id="SVGID_11_">
			<use xlink:href="#SVGID_10_"  style="overflow:visible;"/>
		</clipPath>
		<linearGradient id="SVGID_12_" gradientUnits="userSpaceOnUse" x1="48.2489" y1="77.6432" x2="399.3962" y2="77.6432">
			<stop  offset="0" style="stop-color:#002F66"/>
			<stop  offset="1" style="stop-color:#00ADEE"/>
		</linearGradient>
		<rect x="48.25" y="28.44" class="st4" width="351.15" height="98.4"/>
	</g>
	<g>
		<defs>
			<path id="SVGID_13_" d="M331.48,83.5c-0.96,3.89-1.23,7.79-0.82,11.72c0.41,3.93,1.19,7.43,2.36,10.5l-13.62,1.95
				c-0.41-0.82-0.79-1.61-1.13-2.36c-0.34-0.75-0.68-1.6-1.02-2.56c-1.91,1.57-4.03,2.87-6.35,3.89c-2.32,1.03-4.92,1.53-7.78,1.53
				c-3.42,0-6.33-0.59-8.76-1.79c-2.42-1.19-4.4-2.8-5.94-4.81c-1.53-2.01-2.64-4.37-3.32-7.06c-0.69-2.7-1.02-5.58-1.02-8.65
				c0-4.71,0.83-9.15,2.51-13.31c1.67-4.16,3.99-7.8,6.96-10.91c2.97-3.1,6.47-5.54,10.5-7.32c4.03-1.77,8.4-2.66,13.11-2.66
				c0.62,0,1.69,0.03,3.23,0.1c1.53,0.06,3.29,0.22,5.27,0.46c1.98,0.24,4.06,0.63,6.25,1.18c2.18,0.55,4.26,1.29,6.25,2.25
				L331.48,83.5z M320.83,64.65c-0.89-0.14-1.69-0.24-2.41-0.31c-0.72-0.06-1.59-0.1-2.61-0.1c-2.33,0-4.49,0.58-6.5,1.74
				c-2.01,1.16-3.77,2.68-5.27,4.56c-1.5,1.88-2.68,4.04-3.53,6.5c-0.86,2.45-1.28,5.01-1.28,7.68c0,3.27,0.55,5.87,1.64,7.78
				c1.09,1.91,3.11,2.86,6.04,2.86c1.57,0,2.98-0.3,4.25-0.92c1.26-0.62,2.61-1.64,4.04-3.07c0.14-1.71,0.36-3.5,0.67-5.38
				c0.31-1.88,0.63-3.6,0.97-5.17L320.83,64.65z"/>
		</defs>
		<clipPath id="SVGID_14_">
			<use xlink:href="#SVGID_13_"  style="overflow:visible;"/>
		</clipPath>
		<linearGradient id="SVGID_15_" gradientUnits="userSpaceOnUse" x1="48.2489" y1="77.6432" x2="399.3962" y2="77.6432">
			<stop  offset="0" style="stop-color:#002F66"/>
			<stop  offset="1" style="stop-color:#00ADEE"/>
		</linearGradient>
		<rect x="48.25" y="28.44" class="st5" width="351.15" height="98.4"/>
	</g>
	<g>
		<defs>
			<path id="SVGID_16_" d="M342.23,85.23c0-4.64,0.75-9.01,2.25-13.1c1.5-4.1,3.65-7.68,6.45-10.75c2.8-3.07,6.2-5.49,10.19-7.27
				c3.99-1.77,8.45-2.66,13.36-2.66c3.07,0,5.82,0.29,8.25,0.87c2.42,0.58,4.62,1.34,6.6,2.3L384.1,66.5
				c-1.37-0.54-2.78-1.04-4.25-1.48c-1.46-0.44-3.25-0.67-5.37-0.67c-5.12,0-9.15,1.72-12.08,5.17c-2.94,3.45-4.4,8.15-4.4,14.08
				c0,3.48,0.75,6.3,2.25,8.44c1.5,2.15,4.26,3.23,8.29,3.23c1.98,0,3.89-0.2,5.73-0.61c1.84-0.41,3.48-0.92,4.91-1.54l1.13,12.18
				c-1.91,0.75-4.01,1.42-6.3,2c-2.29,0.58-5.07,0.87-8.35,0.87c-4.24,0-7.82-0.61-10.75-1.84c-2.94-1.23-5.36-2.88-7.27-4.96
				c-1.91-2.08-3.29-4.52-4.15-7.33C342.65,91.24,342.23,88.3,342.23,85.23z"/>
		</defs>
		<clipPath id="SVGID_17_">
			<use xlink:href="#SVGID_16_"  style="overflow:visible;"/>
		</clipPath>
		<linearGradient id="SVGID_18_" gradientUnits="userSpaceOnUse" x1="48.2489" y1="77.6432" x2="399.3962" y2="77.6432">
			<stop  offset="0" style="stop-color:#002F66"/>
			<stop  offset="1" style="stop-color:#00ADEE"/>
		</linearGradient>
		<rect x="48.25" y="28.44" class="st6" width="351.15" height="98.4"/>
	</g>
	<g>
		<g>
			<path class="st7" d="M68.86,142.8c-1.04,0-1.95-0.15-2.71-0.44c-0.76-0.3-1.4-0.71-1.91-1.23c-0.51-0.52-0.89-1.14-1.15-1.83
				c-0.24-0.7-0.37-1.44-0.37-2.22c0-1.44,0.21-2.82,0.65-4.16c0.43-1.34,1.05-2.52,1.85-3.55c0.8-1.03,1.78-1.84,2.93-2.45
				c1.15-0.61,2.46-0.91,3.92-0.91c0.84,0,1.57,0.1,2.17,0.32c0.61,0.22,1.1,0.51,1.48,0.88c0.38,0.37,0.66,0.8,0.85,1.29
				c0.19,0.48,0.28,0.98,0.28,1.49c0,0.96-0.18,1.78-0.53,2.45c-0.35,0.67-0.81,1.22-1.39,1.67c-0.57,0.46-1.25,0.81-2.02,1.05
				c-0.77,0.25-1.57,0.43-2.41,0.58c-0.83,0.15-1.67,0.25-2.53,0.3c-0.86,0.05-1.66,0.1-2.42,0.14c-0.02,0.16-0.04,0.3-0.04,0.4
				c0,0.11,0,0.19,0,0.25c0,0.48,0.06,0.92,0.18,1.34c0.11,0.43,0.32,0.8,0.63,1.11c0.31,0.33,0.73,0.58,1.28,0.76
				c0.54,0.19,1.26,0.27,2.14,0.27c0.39,0,0.8-0.03,1.22-0.1c0.42-0.07,0.82-0.16,1.2-0.28c0.38-0.11,0.72-0.22,1.02-0.34
				c0.3-0.11,0.51-0.22,0.63-0.33l0.24,2.43c-0.41,0.23-1.07,0.47-1.99,0.73C71.18,142.68,70.1,142.8,68.86,142.8z M65.94,133.99
				c1.19-0.04,2.29-0.12,3.27-0.23c0.99-0.12,1.84-0.31,2.56-0.59c0.72-0.28,1.28-0.65,1.68-1.13c0.4-0.48,0.6-1.09,0.6-1.85
				c0-0.18-0.04-0.38-0.1-0.58c-0.07-0.21-0.2-0.39-0.37-0.57c-0.17-0.17-0.42-0.32-0.72-0.43c-0.31-0.11-0.69-0.17-1.14-0.17
				c-0.72,0-1.39,0.15-2.02,0.47c-0.63,0.3-1.19,0.71-1.68,1.21c-0.49,0.51-0.91,1.09-1.26,1.76
				C66.39,132.54,66.12,133.24,65.94,133.99z"/>
			<path class="st7" d="M88.45,132.13c0.86-1.05,1.66-2.05,2.39-3.02c0.73-0.96,1.36-1.88,1.9-2.75h3.11
				c-0.88,1.3-1.86,2.61-2.91,3.93s-2.14,2.64-3.25,3.93c0.66,1.29,1.31,2.64,1.97,4.02c0.66,1.39,1.22,2.77,1.69,4.15h-2.99
				c-0.31-0.93-0.71-1.92-1.19-3c-0.48-1.07-0.96-2.1-1.43-3.08l-5.33,6.08h-3.33l7.4-8.27l-3.98-7.77h3.18L88.45,132.13z"/>
			<path class="st7" d="M108.06,125.97c1.01,0,1.88,0.15,2.61,0.43c0.73,0.29,1.33,0.68,1.8,1.19c0.48,0.5,0.83,1.1,1.07,1.79
				c0.23,0.68,0.35,1.44,0.35,2.26c0,1.42-0.22,2.8-0.65,4.12c-0.43,1.33-1.1,2.5-1.99,3.53c-0.9,1.03-2.03,1.85-3.39,2.46
				c-1.37,0.62-2.99,0.93-4.86,0.93c-0.23,0-0.48-0.01-0.74-0.03c-0.27-0.02-0.5-0.05-0.71-0.1l-1.33,5.55h-2.87l5.06-21.06
				c0.86-0.35,1.81-0.62,2.82-0.8C106.26,126.07,107.2,125.97,108.06,125.97z M102.14,140.15c0.2,0.04,0.43,0.07,0.66,0.08
				c0.24,0.01,0.47,0.01,0.7,0.01c1.17,0,2.22-0.23,3.14-0.67c0.93-0.45,1.72-1.06,2.36-1.84c0.65-0.77,1.15-1.66,1.49-2.65
				c0.35-1,0.53-2.04,0.53-3.13c0-0.45-0.05-0.9-0.15-1.33c-0.1-0.43-0.29-0.81-0.57-1.14c-0.28-0.33-0.65-0.59-1.13-0.79
				c-0.47-0.19-1.08-0.29-1.82-0.29c-0.51,0-0.99,0.05-1.42,0.14c-0.43,0.1-0.79,0.18-1.08,0.26L102.14,140.15z"/>
			<path class="st7" d="M125.51,142.8c-1.05,0-1.95-0.15-2.71-0.44c-0.76-0.3-1.4-0.71-1.91-1.23c-0.52-0.52-0.9-1.14-1.14-1.83
				c-0.24-0.7-0.37-1.44-0.37-2.22c0-1.44,0.22-2.82,0.65-4.16c0.43-1.34,1.05-2.52,1.85-3.55c0.8-1.03,1.78-1.84,2.93-2.45
				c1.15-0.61,2.45-0.91,3.91-0.91c0.85,0,1.57,0.1,2.18,0.32c0.61,0.22,1.1,0.51,1.48,0.88c0.38,0.37,0.67,0.8,0.85,1.29
				c0.19,0.48,0.28,0.98,0.28,1.49c0,0.96-0.17,1.78-0.52,2.45c-0.35,0.67-0.81,1.22-1.39,1.67c-0.58,0.46-1.24,0.81-2.02,1.05
				c-0.77,0.25-1.57,0.43-2.4,0.58c-0.83,0.15-1.68,0.25-2.53,0.3c-0.85,0.05-1.66,0.1-2.42,0.14c-0.03,0.16-0.04,0.3-0.04,0.4
				c0,0.11,0,0.19,0,0.25c0,0.48,0.06,0.92,0.17,1.34c0.11,0.43,0.33,0.8,0.63,1.11c0.31,0.33,0.73,0.58,1.28,0.76
				c0.54,0.19,1.26,0.27,2.14,0.27c0.39,0,0.8-0.03,1.22-0.1c0.42-0.07,0.82-0.16,1.2-0.28c0.38-0.11,0.72-0.22,1.02-0.34
				c0.3-0.11,0.51-0.22,0.63-0.33l0.25,2.43c-0.41,0.23-1.07,0.47-1.99,0.73C127.82,142.68,126.75,142.8,125.51,142.8z
				 M122.59,133.99c1.19-0.04,2.28-0.12,3.26-0.23c0.99-0.12,1.84-0.31,2.56-0.59c0.72-0.28,1.28-0.65,1.68-1.13
				c0.4-0.48,0.6-1.09,0.6-1.85c0-0.18-0.04-0.38-0.1-0.58c-0.07-0.21-0.2-0.39-0.37-0.57c-0.18-0.17-0.42-0.32-0.72-0.43
				c-0.31-0.11-0.69-0.17-1.15-0.17c-0.72,0-1.39,0.15-2.02,0.47c-0.63,0.3-1.19,0.71-1.68,1.21c-0.49,0.51-0.91,1.09-1.27,1.76
				C123.03,132.54,122.77,133.24,122.59,133.99z"/>
			<path class="st7" d="M146.88,126.03c0.25,0,0.52,0,0.83,0.03c0.31,0.02,0.61,0.05,0.91,0.1c0.3,0.05,0.58,0.1,0.82,0.15
				c0.24,0.05,0.43,0.11,0.55,0.17l-0.83,2.49c-0.41-0.16-0.88-0.29-1.42-0.37c-0.54-0.09-1.05-0.12-1.54-0.12
				c-0.43,0-0.86,0.03-1.28,0.09c-0.43,0.06-0.79,0.14-1.1,0.25l-3.27,13.57h-2.87l3.7-15.42c0.82-0.29,1.71-0.52,2.65-0.7
				C144.99,126.12,145.93,126.03,146.88,126.03z"/>
			<path class="st7" d="M157.73,142.84c-1.54,0-2.67-0.34-3.39-1.02c-0.72-0.68-1.08-1.67-1.08-2.96c0-0.85,0.14-1.92,0.43-3.24
				l3.3-13.72l2.99-0.49l-1.2,4.96h5.46l-0.59,2.41h-5.46l-1.69,7.09c-0.25,0.97-0.37,1.81-0.37,2.53c0,0.68,0.19,1.17,0.56,1.47
				c0.37,0.29,0.99,0.44,1.85,0.44c0.6,0,1.19-0.09,1.76-0.29c0.57-0.19,1.02-0.37,1.33-0.54l0.21,2.44
				c-0.31,0.18-0.83,0.38-1.57,0.6C159.52,142.73,158.68,142.84,157.73,142.84z"/>
			<path class="st7" d="M173.31,142.8c-1.69,0-3.01-0.49-3.96-1.49c-0.96-1-1.44-2.37-1.44-4.12c0-1.19,0.17-2.44,0.51-3.76
				c0.34-1.31,0.88-2.52,1.62-3.63c0.74-1.11,1.69-2.02,2.87-2.75c1.17-0.72,2.59-1.08,4.26-1.08c1.68,0,3.01,0.5,3.96,1.49
				c0.96,1,1.43,2.37,1.43,4.12c0,1.19-0.17,2.44-0.51,3.77c-0.33,1.31-0.88,2.52-1.62,3.63c-0.74,1.11-1.7,2.03-2.87,2.75
				C176.39,142.44,174.97,142.8,173.31,142.8z M173.8,140.37c0.92,0,1.75-0.27,2.48-0.8c0.73-0.53,1.35-1.22,1.85-2.05
				c0.5-0.83,0.89-1.75,1.16-2.76c0.27-1,0.4-1.98,0.4-2.92c0-1.05-0.23-1.88-0.68-2.5c-0.45-0.62-1.23-0.93-2.34-0.93
				c-0.92,0-1.75,0.27-2.49,0.8c-0.73,0.54-1.35,1.22-1.85,2.05c-0.5,0.83-0.89,1.75-1.15,2.76c-0.27,1-0.4,1.98-0.4,2.93
				c0,1.05,0.23,1.88,0.68,2.49C171.91,140.06,172.69,140.37,173.8,140.37z"/>
			<path class="st7" d="M191.37,140.4c0.43,0,0.87-0.04,1.31-0.12c0.44-0.08,0.83-0.22,1.17-0.41c0.34-0.19,0.62-0.43,0.83-0.75
				c0.22-0.32,0.32-0.72,0.32-1.19c0-0.3-0.05-0.58-0.15-0.81c-0.1-0.24-0.27-0.46-0.5-0.66c-0.23-0.2-0.51-0.41-0.85-0.6
				c-0.34-0.19-0.75-0.42-1.22-0.67c-0.47-0.22-0.91-0.45-1.29-0.67c-0.39-0.23-0.74-0.49-1.03-0.81c-0.3-0.3-0.53-0.67-0.7-1.1
				c-0.16-0.42-0.24-0.93-0.24-1.53c0-1.54,0.55-2.78,1.66-3.71c1.11-0.94,2.73-1.41,4.84-1.41c0.99,0,1.85,0.1,2.61,0.29
				c0.75,0.19,1.27,0.37,1.56,0.54l-1.08,2.34c-0.29-0.16-0.75-0.34-1.39-0.53c-0.63-0.19-1.34-0.28-2.12-0.28
				c-0.39,0-0.78,0.04-1.17,0.12c-0.39,0.09-0.75,0.22-1.06,0.42c-0.32,0.19-0.58,0.45-0.77,0.77c-0.2,0.33-0.3,0.71-0.3,1.16
				c0,0.56,0.22,1.01,0.65,1.38c0.43,0.36,1.08,0.73,1.94,1.12c0.53,0.25,1.01,0.5,1.43,0.76c0.42,0.25,0.78,0.54,1.08,0.86
				c0.3,0.31,0.52,0.69,0.68,1.12c0.15,0.43,0.23,0.95,0.23,1.54c0,0.86-0.16,1.62-0.49,2.28c-0.33,0.66-0.79,1.21-1.38,1.64
				c-0.58,0.43-1.28,0.76-2.08,0.97c-0.8,0.21-1.67,0.32-2.62,0.32c-0.7,0-1.33-0.04-1.9-0.14c-0.57-0.09-1.06-0.19-1.48-0.32
				c-0.43-0.12-0.77-0.25-1.05-0.39c-0.28-0.13-0.49-0.24-0.63-0.32l1.11-2.34c0.14,0.08,0.34,0.18,0.6,0.31
				c0.26,0.12,0.57,0.25,0.93,0.37c0.35,0.12,0.75,0.23,1.19,0.31C190.45,140.36,190.9,140.4,191.37,140.4z"/>
			<path class="st7" d="M220.24,142.8c-1.05,0-1.95-0.15-2.71-0.44c-0.76-0.3-1.4-0.71-1.91-1.23c-0.51-0.52-0.89-1.14-1.14-1.83
				c-0.24-0.7-0.37-1.44-0.37-2.22c0-1.44,0.22-2.82,0.65-4.16c0.43-1.34,1.05-2.52,1.85-3.55c0.8-1.03,1.77-1.84,2.93-2.45
				c1.15-0.61,2.45-0.91,3.91-0.91c0.84,0,1.57,0.1,2.18,0.32c0.61,0.22,1.1,0.51,1.48,0.88c0.38,0.37,0.67,0.8,0.85,1.29
				c0.18,0.48,0.28,0.98,0.28,1.49c0,0.96-0.18,1.78-0.53,2.45c-0.35,0.67-0.81,1.22-1.39,1.67c-0.57,0.46-1.24,0.81-2.02,1.05
				c-0.77,0.25-1.57,0.43-2.4,0.58c-0.83,0.15-1.67,0.25-2.53,0.3c-0.85,0.05-1.66,0.1-2.42,0.14c-0.02,0.16-0.03,0.3-0.03,0.4
				c0,0.11,0,0.19,0,0.25c0,0.48,0.05,0.92,0.17,1.34c0.11,0.43,0.33,0.8,0.63,1.11c0.31,0.33,0.73,0.58,1.28,0.76
				c0.54,0.19,1.25,0.27,2.14,0.27c0.39,0,0.8-0.03,1.22-0.1c0.42-0.07,0.82-0.16,1.2-0.28s0.72-0.22,1.02-0.34
				c0.29-0.11,0.51-0.22,0.63-0.33l0.25,2.43c-0.42,0.23-1.08,0.47-1.99,0.73C222.54,142.68,221.47,142.8,220.24,142.8z
				 M217.31,133.99c1.19-0.04,2.28-0.12,3.26-0.23c0.99-0.12,1.84-0.31,2.56-0.59c0.72-0.28,1.28-0.65,1.68-1.13
				c0.4-0.48,0.6-1.09,0.6-1.85c0-0.18-0.04-0.38-0.11-0.58c-0.07-0.21-0.19-0.39-0.37-0.57c-0.18-0.17-0.42-0.32-0.72-0.43
				c-0.31-0.11-0.69-0.17-1.14-0.17c-0.72,0-1.39,0.15-2.02,0.47c-0.63,0.3-1.19,0.71-1.68,1.21c-0.49,0.51-0.92,1.09-1.27,1.76
				C217.76,132.54,217.49,133.24,217.31,133.99z"/>
			<path class="st7" d="M235.28,142.41h-2.86l3.69-15.42c0.95-0.29,1.97-0.52,3.07-0.7c1.1-0.17,2.08-0.26,2.95-0.26
				c0.92,0,1.72,0.13,2.39,0.38c0.67,0.25,1.2,0.61,1.62,1.05c0.41,0.44,0.72,0.98,0.91,1.61c0.2,0.62,0.29,1.31,0.29,2.05
				c0,0.47-0.04,0.97-0.12,1.49c-0.08,0.53-0.19,1.05-0.31,1.59l-1.97,8.21h-2.87l1.82-7.59c0.14-0.57,0.28-1.16,0.42-1.76
				c0.14-0.6,0.2-1.16,0.2-1.7c0-0.82-0.23-1.51-0.68-2.05c-0.45-0.55-1.29-0.82-2.53-0.82c-0.52,0-1.02,0.03-1.51,0.09
				c-0.5,0.06-0.91,0.14-1.23,0.25L235.28,142.41z"/>
			<path class="st7" d="M266.3,142.41c-0.24-1.05-0.48-2.2-0.71-3.45c-0.23-1.25-0.43-2.57-0.62-3.94
				c-0.18-1.36-0.34-2.77-0.46-4.24c-0.13-1.46-0.21-2.93-0.24-4.41h2.9c0.02,1.01,0.06,2.08,0.14,3.23
				c0.07,1.14,0.16,2.28,0.26,3.42c0.1,1.14,0.23,2.24,0.37,3.3c0.15,1.06,0.3,2.02,0.46,2.88c0.62-0.78,1.26-1.7,1.93-2.76
				c0.67-1.06,1.31-2.17,1.93-3.33c0.62-1.16,1.18-2.33,1.69-3.5c0.52-1.17,0.93-2.25,1.24-3.24h2.9c-0.45,1.36-1.03,2.76-1.73,4.23
				c-0.7,1.46-1.45,2.9-2.27,4.3c-0.81,1.41-1.67,2.76-2.56,4.06c-0.9,1.29-1.76,2.44-2.61,3.45H266.3z"/>
			<path class="st7" d="M291.59,142.59c-0.1-0.22-0.21-0.48-0.31-0.76c-0.11-0.28-0.19-0.57-0.24-0.87
				c-0.46,0.41-1.06,0.82-1.82,1.23c-0.76,0.41-1.69,0.61-2.8,0.61c-0.91,0-1.68-0.15-2.33-0.43c-0.65-0.29-1.18-0.68-1.59-1.2
				c-0.41-0.52-0.72-1.12-0.91-1.82c-0.19-0.7-0.29-1.47-0.29-2.31c0-1.38,0.23-2.72,0.69-4.04c0.46-1.31,1.16-2.48,2.09-3.51
				c0.92-1.03,2.08-1.86,3.49-2.5c1.39-0.64,3.03-0.96,4.9-0.96c0.55,0,1.2,0.06,1.94,0.19c0.74,0.12,1.38,0.33,1.91,0.62
				l-2.37,9.69c-0.11,0.47-0.19,0.92-0.26,1.35c-0.08,0.43-0.11,0.89-0.11,1.36c0,0.48,0.04,0.95,0.12,1.43
				c0.08,0.48,0.23,1,0.43,1.56L291.59,142.59z M286.99,140.37c0.86,0,1.61-0.18,2.22-0.55c0.62-0.37,1.14-0.8,1.61-1.29
				c0.02-0.35,0.05-0.72,0.11-1.09c0.05-0.38,0.11-0.77,0.2-1.16l1.85-7.65c-0.1-0.04-0.27-0.07-0.51-0.1
				c-0.24-0.02-0.45-0.03-0.63-0.03c-1.17,0-2.23,0.22-3.17,0.68c-0.95,0.45-1.76,1.05-2.42,1.8c-0.67,0.76-1.19,1.62-1.54,2.62
				c-0.36,1-0.54,2.04-0.54,3.13c0,0.43,0.04,0.86,0.13,1.31c0.08,0.44,0.23,0.83,0.44,1.17c0.22,0.34,0.5,0.61,0.86,0.83
				C285.95,140.26,286.42,140.37,286.99,140.37z"/>
			<path class="st7" d="M301.21,136.67c0-1.39,0.21-2.75,0.63-4.04c0.42-1.29,1.05-2.43,1.87-3.42c0.82-0.98,1.83-1.77,3.02-2.36
				c1.19-0.58,2.56-0.88,4.11-0.88c0.67,0,1.32,0.05,1.94,0.14c0.62,0.1,1.2,0.28,1.76,0.54l-1.08,2.4
				c-0.33-0.19-0.72-0.33-1.15-0.43c-0.44-0.1-1.01-0.15-1.72-0.15c-1,0-1.91,0.22-2.71,0.67c-0.8,0.43-1.48,1.03-2.05,1.76
				c-0.57,0.73-1,1.57-1.29,2.53c-0.3,0.96-0.45,1.95-0.45,2.98c0,0.53,0.06,1.04,0.17,1.51c0.11,0.47,0.32,0.89,0.6,1.25
				c0.29,0.36,0.67,0.64,1.16,0.85c0.48,0.2,1.09,0.3,1.83,0.3c0.37,0,0.76-0.03,1.17-0.1c0.41-0.07,0.79-0.16,1.15-0.26
				c0.34-0.1,0.66-0.21,0.94-0.32c0.28-0.11,0.48-0.22,0.6-0.32l0.25,2.43c-0.39,0.24-1,0.49-1.82,0.72
				c-0.82,0.24-1.76,0.35-2.81,0.35c-0.99,0-1.86-0.15-2.62-0.44c-0.76-0.3-1.4-0.72-1.91-1.26c-0.52-0.54-0.91-1.19-1.17-1.94
				C301.34,138.4,301.21,137.58,301.21,136.67z"/>
			<path class="st7" d="M320.33,142.41h-2.87l3.86-16.04h2.87L320.33,142.41z M327.48,120.57l-5.21,3.95l-1.23-1.51l4.87-4.66
				L327.48,120.57z"/>
			<path class="st7" d="M334.36,142.8c-1.69,0-3.01-0.49-3.96-1.49c-0.96-1-1.43-2.37-1.43-4.12c0-1.19,0.17-2.44,0.51-3.76
				c0.33-1.31,0.88-2.52,1.62-3.63c0.74-1.11,1.7-2.02,2.87-2.75c1.17-0.72,2.59-1.08,4.25-1.08c1.69,0,3.01,0.5,3.96,1.49
				c0.96,1,1.44,2.37,1.44,4.12c0,1.19-0.17,2.44-0.51,3.77c-0.34,1.31-0.88,2.52-1.62,3.63c-0.74,1.11-1.7,2.03-2.87,2.75
				C337.44,142.44,336.02,142.8,334.36,142.8z M334.85,140.37c0.92,0,1.75-0.27,2.48-0.8c0.73-0.53,1.35-1.22,1.85-2.05
				c0.5-0.83,0.89-1.75,1.15-2.76c0.27-1,0.4-1.98,0.4-2.92c0-1.05-0.23-1.88-0.68-2.5c-0.45-0.62-1.24-0.93-2.34-0.93
				c-0.92,0-1.75,0.27-2.48,0.8c-0.73,0.54-1.35,1.22-1.85,2.05c-0.5,0.83-0.89,1.75-1.16,2.76c-0.27,1-0.4,1.98-0.4,2.93
				c0,1.05,0.22,1.88,0.68,2.49C332.96,140.06,333.74,140.37,334.85,140.37z"/>
		</g>
	</g>
</g>
</svg>
