<?xml version="1.0" encoding="utf-8"?>
<!-- Generator: Adobe Illustrator 25.2.3, SVG Export Plug-In . SVG Version: 6.00 Build 0)  -->
<svg version="1.1" id="Capa_1" xmlns="http://www.w3.org/2000/svg" xmlns:xlink="http://www.w3.org/1999/xlink" x="0px" y="0px"
	 viewBox="0 0 462 177" style="enable-background:new 0 0 462 177;" xml:space="preserve">
<style type="text/css">
	.st0{fill-rule:evenodd;clip-rule:evenodd;fill:#00539A;}
	.st1{fill:#00539A;}
</style>
<g>
	<g>
		<g>
			<path class="st0" d="M251.47,83.76h7.02c0,0,1.96-0.23,2.18-2.35c0.14-1.33,0.04-5.41,0.04-5.41s-0.39-2.05-2-2.44
				c-1.59-0.42-4.3,0.08-5.06,1.37c-0.74,1.29-3.59,6.1-3.59,6.1S249.04,83.31,251.47,83.76z M202.81,102.24c0,0,2.02-6.35,8.32-6.5
				l8.03,0.02c0,0,1.65-0.15,2.9-1.62c1.24-1.48,20.75-30.71,20.75-30.71l4.28-6.21c0,0,5.49-10.22,17.85-10.14
				c12.35,0.1,14.38,4.1,15.11,7.73c0.7,3.65,3.55,29.59,2.66,42.28c0,0,0.18,5.25-6.57,5.78l-22.03,0.08c0,0-5.07,0.09-9.87-5.31
				l-3.38-3.29l-8.78,10.57c0,0-6.76,7.91-14.4,7.99C210.04,112.97,200.94,111.47,202.81,102.24z"/>
			<g>
				<path class="st0" d="M58.94,45.44c0,0,0.36-6.59,8.49-6.59c8.14,0,23.47,0,23.47,0s7.93,2.43,7.25,10.34
					c0,0-0.64,1.32-0.86,2.63c-0.23,1.31-18.51,38.35-18.51,38.35s-2.62,5.16,0.45,6.38c0,0,5.48,1.87,7.48-0.56
					c0,0,1.3-1.21,2.19-2.97c0.87-1.75,6.49-10.44,6.49-10.44s2.53-3.96,9.23-3.73c0,0,6.72-0.56,5.6,5.92L100.66,104
					c0,0-5.17,9.9-14.07,9.9l-37.7-0.1c0,0-8.47-2.09-5.06-9.88c3.05-6.99,22.23-49.58,22.23-49.58s0.84-1.88-1.99-1.88
					C63.17,52.45,58.94,51.7,58.94,45.44z"/>
				<path class="st0" d="M146.21,103.7l17.89-37.82c0,0,2.63-6.61,11.87-6.3h42.5c0,0,9.97,0.87,5.86,10.12
					c-3.31,7.45-8.49,18.45-8.49,18.45s-3.53,4.55-7.62,4.55h-20.53c0,0-6.3-1.16-8.5-4.25c0,0-0.43-0.15-0.86,0.75
					c-0.44,0.86-9.09,19.2-9.09,19.2s-2.49,4.67-9.53,4.67c-7.03,0-8.35-0.14-8.35-0.14S142.69,112.34,146.21,103.7z M185.27,79.01
					h6.67c2.44,0,2.82-1.5,2.82-1.5s1.56-3.2,2.14-4.57c1.26-2.94-1.72-2.75-1.72-2.75h-5.98c-2.25,0-2.77,1.43-2.77,1.43
					s-1.91,4.21-2.36,5.28C183.35,78.7,185.27,79.01,185.27,79.01z"/>
				<path class="st0" d="M288.16,94.6l14.36-30.5c0,0,1.75-4.52,8.79-4.66h45.43c0,0,9.46-0.56,7.85,8.68l-7.8,16.66
					c0,0-1.81,4.1-4.75,4.1c0,0-2.8,1.19-2.2,3.53l4.54,14.5c0,0,3.4,6.02-4.39,6.31c-3.39,0.11-15.84,0-15.84,0
					s-6.29-0.6-8.04-5.73l-6.3-14.5c0,0-2.34-2.78-3.81-0.88l-3.51,7.76c0,0-2.05,3.53-6.61,3.97c-4.54,0.44-12.01-0.31-12.01-0.31
					S286.11,102.36,288.16,94.6z M322.43,77.3c-1.3,1.76,0.15,1.91,0.15,1.91h6.75c3.8,0,3.67-2.49,4.54-5.55
					c0.88-3.1-1.77-3.67-1.77-3.67h-6.04L322.43,77.3z"/>
				<path class="st0" d="M368.64,78.67c0,0,2.22-5.2,9.07-5.2l12.93,0.02c0,0,6.86,0.71,4.39,7.52c-1.98,5.44-6.29,13.55-6.29,13.55
					s-3.72,8.55-11.35,8.41l-13.29-0.01c0,0-7.01-1.47-3.69-7.37L368.64,78.67z"/>
				<path class="st0" d="M381.96,59.41c3.76-0.14,16.9,0.04,16.9,0.04s5.88-0.4,4.01,3.44c-2.87,5.87-3.31,7.73-9.07,7.73
					l-15.75-0.02c0,0-5.49,0.02-2.94-5.13C376.92,61.5,378.04,59.58,381.96,59.41z"/>
				<g>
					<path class="st0" d="M123.15,76.97c0,0,1.45-3.7,8.3-3.63l13.05,0.01c0,0,7.08,0.65,5.26,5.61
						c-1.47,3.98-9.28,18.44-9.28,18.44s-2.9,6.22-10.53,6.04l-13.31-0.15c0,0-7.15-1.14-4.4-5.45L123.15,76.97z"/>
					<path class="st0" d="M132.08,70.52c2.01,0.17,15.12,0,15.12,0s6.27-1.51,7.95-4.03c1.68-2.51,2.18-3.87,2.18-3.87
						s0.35-3.03-3.18-3.21c-3.55-0.15-15.18,2.54-17.71,3.21c-2.5,0.66-5.05,1.52-6.22,4.21C129.03,69.52,130.07,70.36,132.08,70.52
						z"/>
				</g>
			</g>
		</g>
		<g>
			<path class="st1" d="M417.74,57.14c3.48,0,6.26,2.84,6.26,6.38c0,3.59-2.78,6.39-6.29,6.39c-3.47,0-6.31-2.79-6.31-6.39
				c0-3.54,2.84-6.38,6.31-6.38H417.74z M417.71,58.15c-2.8,0-5.09,2.4-5.09,5.37c0,3.02,2.29,5.39,5.12,5.39
				c2.83,0.05,5.09-2.37,5.09-5.35c0-3-2.26-5.4-5.09-5.4H417.71z M416.52,67.22h-1.13v-7.1c0.61-0.1,1.16-0.18,2.01-0.18
				c1.08,0,1.79,0.23,2.2,0.53c0.43,0.34,0.66,0.81,0.66,1.48c0,0.94-0.63,1.51-1.38,1.72v0.05c0.62,0.11,1.05,0.68,1.19,1.73
				c0.16,1.1,0.34,1.52,0.44,1.76h-1.19c-0.17-0.24-0.33-0.86-0.48-1.81c-0.16-0.91-0.62-1.24-1.53-1.24h-0.8V67.22z M416.52,63.28
				h0.83c0.94,0,1.73-0.33,1.73-1.2c0-0.62-0.46-1.24-1.73-1.24c-0.36,0-0.62,0.02-0.83,0.05V63.28z"/>
		</g>
	</g>
	<g>
		<path class="st1" d="M44.63,141.07c1.99,0.45,3.31,0.63,4.69,0.63c2.97,0,4.48-1.14,4.48-3.43c0-1.35-0.57-2.25-1.92-3.03l-4-2.32
			c-2.37-1.35-3.39-2.91-3.39-5.2c0-3.43,2.53-5.53,6.67-5.53c1.23,0,2.77,0.3,4.72,0.93l0.3,0.09v1.89
			c-1.8-0.51-3.21-0.75-4.66-0.75c-2.68,0-4.03,1.02-4.03,3.06c0,1.35,0.69,2.14,2.77,3.28l3.28,1.8c2.34,1.29,3.36,2.95,3.36,5.35
			c0,3.7-2.73,6.1-6.97,6.1c-1.38,0-3.25-0.33-5.5-0.99l-0.24-0.06v-1.96L44.63,141.07z"/>
		<path class="st1" d="M66.75,128.03c4.54,0,7.24,2.91,7.24,7.78c0,5.11-2.77,8.23-7.27,8.23c-4.57,0-7.27-2.91-7.27-7.81
			C59.44,131.15,62.24,128.03,66.75,128.03z M66.72,142.25c2.62,0,4.09-2.25,4.09-6.25c0-4.03-1.44-6.16-4.06-6.16
			c-2.62,0-4.09,2.23-4.09,6.25C62.66,140.11,64.07,142.25,66.72,142.25z"/>
		<path class="st1" d="M77.48,120.43h3v23.26h-3V120.43z"/>
		<path class="st1" d="M97.43,143.68h-2.91v-0.96l-0.27,0.09c-1.65,0.6-2.97,0.99-3.88,1.17c-0.18,0-0.48,0.03-0.84,0.03
			c-1.53,0-2.94-0.58-3.72-1.5c-0.78-0.96-1.05-2.08-1.05-4.3v-9.86h3.01v9.35c0,1.81,0.18,2.56,0.75,3.19
			c0.51,0.57,1.41,0.84,2.61,0.84c0.93,0,2.1-0.12,3.19-0.39l0.12-0.03v-12.95h3V143.68z"/>
		<path class="st1" d="M112.85,130.61c-1.29-0.33-2.32-0.45-3.49-0.45c-3.61,0-5.29,1.92-5.29,5.95c0,3.82,1.71,5.62,5.29,5.62
			c1.11,0,2.49-0.15,3.49-0.36v1.68l-0.27,0.06c-0.78,0.21-1.56,0.39-2.34,0.54c-1.11,0.21-1.5,0.27-2.31,0.27
			c-4.48,0-7.06-2.74-7.06-7.49c0-5.23,2.91-8.35,7.84-8.35c1.15,0,2.23,0.21,3.94,0.72l0.21,0.06V130.61z"/>
		<path class="st1" d="M117.42,122.2c1.29,0,1.92,0.57,1.92,1.74c0,1.23-0.63,1.83-1.98,1.83c-1.2,0-1.86-0.63-1.86-1.81
			C115.5,122.8,116.16,122.2,117.42,122.2z M115.92,128.36h3.01v15.32h-3.01V128.36z"/>
		<path class="st1" d="M129.68,128.03c4.54,0,7.25,2.91,7.25,7.78c0,5.11-2.76,8.23-7.27,8.23c-4.57,0-7.27-2.91-7.27-7.81
			C122.38,131.15,125.17,128.03,129.68,128.03z M129.65,142.25c2.62,0,4.09-2.25,4.09-6.25c0-4.03-1.44-6.16-4.06-6.16
			c-2.61,0-4.08,2.23-4.08,6.25C125.6,140.11,127.01,142.25,129.65,142.25z"/>
		<path class="st1" d="M140.41,128.36h2.91v0.96l0.27-0.09c1.65-0.63,2.98-0.99,3.88-1.14c0.15-0.03,0.45-0.06,0.81-0.06
			c1.53,0,2.98,0.57,3.72,1.5c0.78,0.93,1.09,2.07,1.09,4.29v9.86h-3v-9.35c0-1.77-0.18-2.55-0.75-3.19
			c-0.51-0.57-1.41-0.84-2.62-0.84c-0.96,0-2.14,0.15-3.19,0.39l-0.12,0.03v12.95h-3V128.36z"/>
		<path class="st1" d="M168.87,143.09l-0.24,0.06c-1.68,0.39-3.1,0.63-4.24,0.78c-0.24,0.03-0.54,0.03-0.84,0.03
			c-1.98,0-3.91-0.63-5.05-1.65c-1.41-1.26-2.1-3.19-2.1-5.86c0-5.23,2.65-8.38,7.01-8.38c2.94,0,4.9,1.35,5.71,3.96
			c0.33,0.99,0.42,1.95,0.45,4.18h-10.01c0,0.12,0,0.21,0,0.27c0,3.72,1.59,5.32,5.29,5.32c1.05,0,2.47-0.12,3.82-0.3l0.21-0.06
			V143.09z M166.41,134.28c-0.03-3.1-1-4.42-3.22-4.42c-2.38,0-3.61,1.53-3.63,4.6h6.85V134.28z"/>
		<path class="st1" d="M181.23,130.67c-1.35-0.39-2.53-0.54-3.7-0.54c-1.72,0-2.62,0.63-2.62,1.86c0,0.84,0.48,1.42,1.81,2.08
			l2.76,1.41c1.68,0.87,2.43,2.04,2.43,3.82c0,2.86-2.16,4.66-5.65,4.66c-0.93,0-2.34-0.24-4.18-0.72l-0.21-0.06v-1.84
			c1.72,0.43,2.91,0.58,4.21,0.58c1.96,0,2.98-0.75,2.98-2.16c0-0.87-0.43-1.44-1.38-1.92l-2.71-1.38
			c-1.98-0.99-2.88-2.25-2.88-4.03c0-2.64,1.96-4.33,5.08-4.33c0.93,0,2.16,0.24,3.7,0.69l0.36,0.09V130.67z"/>
		<path class="st1" d="M202.45,143.68v-0.9c-0.12,0.03-0.24,0.09-0.3,0.09c-1.44,0.57-2.59,0.9-3.34,1.05
			c-0.21,0.03-0.48,0.06-0.84,0.06c-3.79,0-6.28-3-6.28-7.54c0-4.72,3.15-8.26,7.39-8.26c1.11,0,2.23,0.24,3.34,0.75v-8.5h3v23.26
			H202.45z M202.42,130.46c-0.67-0.15-1.59-0.24-2.43-0.24c-3.19,0-5.08,2.22-5.08,5.92c0,3.54,1.72,5.56,4.75,5.56
			c0.93,0,1.9-0.12,2.77-0.3V130.46z"/>
		<path class="st1" d="M221.32,143.09l-0.24,0.06c-1.68,0.39-3.1,0.63-4.24,0.78c-0.24,0.03-0.54,0.03-0.84,0.03
			c-1.98,0-3.91-0.63-5.05-1.65c-1.41-1.26-2.1-3.19-2.1-5.86c0-5.23,2.64-8.38,7-8.38c2.95,0,4.9,1.35,5.71,3.96
			c0.33,0.99,0.42,1.95,0.45,4.18H212c0,0.12,0,0.21,0,0.27c0,3.72,1.59,5.32,5.29,5.32c1.05,0,2.46-0.12,3.82-0.3l0.21-0.06V143.09
			z M218.86,134.28c-0.03-3.1-0.99-4.42-3.21-4.42c-2.38,0-3.61,1.53-3.64,4.6h6.85V134.28z"/>
		<path class="st1" d="M244.26,143.09l-0.24,0.06c-1.68,0.39-3.1,0.63-4.24,0.78c-0.24,0.03-0.54,0.03-0.84,0.03
			c-1.98,0-3.91-0.63-5.05-1.65c-1.41-1.26-2.1-3.19-2.1-5.86c0-5.23,2.64-8.38,7-8.38c2.95,0,4.9,1.35,5.71,3.96
			c0.34,0.99,0.43,1.95,0.45,4.18h-10.01c0,0.12,0,0.21,0,0.27c0,3.72,1.59,5.32,5.29,5.32c1.05,0,2.46-0.12,3.82-0.3l0.21-0.06
			V143.09z M241.79,134.28c-0.03-3.1-0.99-4.42-3.22-4.42c-2.37,0-3.6,1.53-3.63,4.6h6.85V134.28z"/>
		<path class="st1" d="M248.43,128.36h2.91v0.96l0.27-0.09c1.66-0.63,2.98-0.99,3.88-1.14c0.15-0.03,0.45-0.06,0.81-0.06
			c1.53,0,2.98,0.57,3.73,1.5c0.78,0.93,1.08,2.07,1.08,4.29v9.86h-3v-9.35c0-1.77-0.18-2.55-0.75-3.19
			c-0.51-0.57-1.41-0.84-2.62-0.84c-0.96,0-2.13,0.15-3.19,0.39l-0.12,0.03v12.95h-3V128.36z"/>
		<path class="st1" d="M268.42,143.68l-5.53-15.32h3.43l4,12.77l4.18-12.77h2.82l-5.77,15.32H268.42z"/>
		<path class="st1" d="M287.44,143.68v-0.96l-0.27,0.09c-1.33,0.51-2.34,0.84-2.97,0.99c-0.3,0.06-0.69,0.09-1.15,0.09
			c-2.73,0-4.57-1.77-4.57-4.39c0-2.41,1.23-3.85,3.69-4.36c0.87-0.15,2.38-0.27,4.12-0.3c0.3,0,0.54,0,1.05,0v-1.95
			c0-1.92-0.81-2.62-2.98-2.62c-1.11,0-2.97,0.18-4.53,0.48v-1.71l0.21-0.06c1.86-0.45,3.46-0.76,4.69-0.91
			c0.21-0.03,0.48-0.03,0.78-0.03c1.59,0,2.91,0.45,3.69,1.23c0.81,0.78,1.09,1.77,1.09,4.06v10.34H287.44z M286.66,136.51
			c-2.1,0.06-3.01,0.21-3.82,0.57c-0.78,0.39-1.23,1.14-1.23,2.13c0,1.68,1.05,2.56,3.1,2.56c0.84,0,1.75-0.12,2.65-0.33v-4.96
			L286.66,136.51z"/>
		<path class="st1" d="M302.56,130.67c-1.35-0.39-2.53-0.54-3.7-0.54c-1.71,0-2.62,0.63-2.62,1.86c0,0.84,0.48,1.42,1.81,2.08
			l2.77,1.41c1.68,0.87,2.43,2.04,2.43,3.82c0,2.86-2.16,4.66-5.65,4.66c-0.93,0-2.34-0.24-4.18-0.72l-0.21-0.06v-1.84
			c1.71,0.43,2.91,0.58,4.21,0.58c1.95,0,2.97-0.75,2.97-2.16c0-0.87-0.42-1.44-1.38-1.92l-2.71-1.38
			c-1.98-0.99-2.89-2.25-2.89-4.03c0-2.64,1.96-4.33,5.08-4.33c0.93,0,2.16,0.24,3.7,0.69l0.36,0.09V130.67z"/>
		<path class="st1" d="M314.73,143.68v-0.96l-0.27,0.09c-1.33,0.51-2.34,0.84-2.98,0.99c-0.3,0.06-0.69,0.09-1.14,0.09
			c-2.73,0-4.57-1.77-4.57-4.39c0-2.41,1.23-3.85,3.69-4.36c0.87-0.15,2.38-0.27,4.12-0.3c0.3,0,0.54,0,1.05,0v-1.95
			c0-1.92-0.81-2.62-2.97-2.62c-1.11,0-2.97,0.18-4.54,0.48v-1.71l0.21-0.06c1.86-0.45,3.45-0.76,4.69-0.91
			c0.21-0.03,0.48-0.03,0.78-0.03c1.59,0,2.91,0.45,3.69,1.23c0.81,0.78,1.08,1.77,1.08,4.06v10.34H314.73z M313.95,136.51
			c-2.1,0.06-3.01,0.21-3.82,0.57c-0.78,0.39-1.23,1.14-1.23,2.13c0,1.68,1.05,2.56,3.1,2.56c0.84,0,1.75-0.12,2.64-0.33v-4.96
			L313.95,136.51z"/>
		<path class="st1" d="M331.69,143.68v-0.9c-0.12,0.03-0.24,0.09-0.3,0.09c-1.44,0.57-2.59,0.9-3.34,1.05
			c-0.21,0.03-0.48,0.06-0.84,0.06c-3.78,0-6.28-3-6.28-7.54c0-4.72,3.16-8.26,7.4-8.26c1.11,0,2.23,0.24,3.34,0.75v-8.5h3v23.26
			H331.69z M331.65,130.46c-0.66-0.15-1.59-0.24-2.43-0.24c-3.19,0-5.08,2.22-5.08,5.92c0,3.54,1.72,5.56,4.75,5.56
			c0.93,0,1.89-0.12,2.77-0.3V130.46z"/>
		<path class="st1" d="M345.39,128.03c4.54,0,7.24,2.91,7.24,7.78c0,5.11-2.76,8.23-7.27,8.23c-4.57,0-7.28-2.91-7.28-7.81
			C338.09,131.15,340.88,128.03,345.39,128.03z M345.36,142.25c2.61,0,4.09-2.25,4.09-6.25c0-4.03-1.44-6.16-4.06-6.16
			c-2.62,0-4.09,2.23-4.09,6.25C341.3,140.11,342.72,142.25,345.36,142.25z"/>
	</g>
</g>
</svg>
