<?xml version="1.0" encoding="utf-8"?>
<!-- Generator: Adobe Illustrator 25.2.3, SVG Export Plug-In . SVG Version: 6.00 Build 0)  -->
<svg version="1.1" id="Capa_1" xmlns="http://www.w3.org/2000/svg" xmlns:xlink="http://www.w3.org/1999/xlink" x="0px" y="0px"
	 viewBox="0 0 500 500" style="enable-background:new 0 0 500 500;" xml:space="preserve">
<style type="text/css">
	.st0{fill:url(#SVGID_1_);}
	.st1{fill:#FFFFFF;}
</style>
<g>
	<linearGradient id="SVGID_1_" gradientUnits="userSpaceOnUse" x1="22.1963" y1="250.6029" x2="482.6074" y2="250.6029">
		<stop  offset="0" style="stop-color:#00ABEC"/>
		<stop  offset="1" style="stop-color:#004A8C"/>
	</linearGradient>
	<rect x="22.2" y="20.4" class="st0" width="460.41" height="460.41"/>
	<g>
		<path class="st1" d="M139.7,225.98h-7.49v-13.71h-0.24c-2.58,9.96-10.44,15.13-20.18,15.13c-26.15,0-28.16-26.04-28.16-46.69
			c0-20.53,3.66-45.16,29.1-45.16c16.53,0,26.17,10.67,26.17,26.75v0.58h-9.86c-0.12-10.79-4.7-18.29-15.84-18.54h-0.48
			c-18.75,0-19,21.81-19,36.72v3.17c0,13.59,0.59,33.65,16.66,34.35h1.3c16.3,0,18.3-15.12,18.3-28.38v-1.28h-19.6v-8.8h29.32
			V225.98z"/>
		<path class="st1" d="M168.85,225.28h-9.74v-87.95h22.64c17.94,0,29.55,4.55,29.55,23.68v1.41c-0.34,10.32-6.69,17.71-16.89,19.12
			v0.23c11.39,1.05,14.19,4.7,15.61,16.43c0.34,6.57,0.94,13,1.86,19.58c0.36,1.64,1.05,5.52,3.41,5.52v1.99h-11.37
			c-2.12-5.64-3.05-16.54-3.05-22.4c0-8.79-3.51-16.3-15.02-16.3h-17V225.28z M168.85,177.77h15.36c4.55-0.12,17-0.82,17-15.71
			v-0.47c-0.23-15.13-12.07-15.5-18.64-15.5h-13.72V177.77z"/>
		<path class="st1" d="M230.22,137.32h9.73v64.04c0,6.91,1.66,17.22,16.67,17.22c15.01,0,16.66-10.31,16.66-17.22v-64.04H283v66.73
			c0,15.71-10.44,23.34-26.38,23.34c-15.95,0-26.4-7.63-26.4-23.34V137.32z"/>
		<path class="st1" d="M302.53,225.28v-87.95h23.11c6.8,0,15.36,0.82,20.51,5.73c5.27,4.93,7.16,11.73,7.16,18.77
			c0,9.73-2.94,19.24-12.43,23.56c-6.09,2.6-16.07,2.6-22.75,2.6h-5.87v37.28H302.53z M312.27,179.19h9.5
			c13.25-0.12,21.46-2,21.46-16.78v-0.35c0-13.5-8.2-15.97-19.22-15.97h-11.73V179.19z"/>
		<path class="st1" d="M393.81,135.55c25.21,0,28.75,22.87,28.75,42.81v1.05c-0.13,24.42-3.3,47.99-28.97,47.99
			c-25.69,0-28.76-23.56-28.98-47.99C364.6,159.25,367.65,135.55,393.81,135.55z M412.46,178.83c0-19.24-3.86-34.49-19.14-34.49
			c-14.75,0-18.63,15.25-18.63,34.49v0.82c0.11,25.45,2.7,38.93,18.89,38.93c16.18,0,18.75-13.48,18.87-38.93V178.83z"/>
		<path class="st1" d="M81.66,350.46v-87.98h20.65v70.39h25.21v17.59H81.66z"/>
		<polygon class="st1" points="174.83,245.12 163.08,262.48 142.44,262.48 154.17,245.12 		"/>
		<rect x="142.44" y="271.21" class="st1" width="20.65" height="79.25"/>
		<path class="st1" d="M182.34,350.46v-87.98h24.53c7.97,0,19.47,0.71,25.21,7.28c4.82,5.38,5.75,11.96,5.75,19.12
			c0,9.5-2.23,20.17-11.62,24.51c-7.16,3.53-15.49,2.47-23.23,2.83v34.24H182.34z M202.98,300.38c3.88-0.11,8.33,0.35,11.62-2.23
			c2.1-2.35,2.58-5.86,2.58-8.92c0-3.4-0.34-8.55-3.87-10.19c-1.99-0.71-4.8-0.71-8.08-0.71h-2.24V300.38z"/>
		<path class="st1" d="M245.16,350.46l19.23-87.98h24.85l19.12,87.98h-20.88l-2.92-17.13h-16.2l-2.46,17.13H245.16z M276.8,278.43
			h-0.21l-5.98,39.43h11.95L276.8,278.43z"/>
		<path class="st1" d="M341.95,350.46h-20.63v-87.98h30.14c16.88,0,25.33,6.8,25.33,24.28c0,9.4-2.24,16.08-10.91,20.05v0.25
			c5.75,1.28,9.85,5.27,10.19,11.37c0.59,7.04,0.71,22.17,1.89,27.81c0.46,1.16,1.05,2.21,1.99,3.04v1.18h-22.52
			c-0.59-1.64-1.05-3.28-1.17-5.04c-0.36-7.75,0.12-15.01-0.47-20.42c-0.59-5.38-2.23-8.9-7.05-9.26h-6.8V350.46z M341.95,299.9H349
			c5.98,0,7.39-5.5,7.39-10.9c0-10.43-4.36-10.91-14.45-10.68V299.9z"/>
		<path class="st1" d="M394.67,350.46v-87.98h20.65v87.98H394.67z"/>
		<path class="st1" d="M489.09,489.1H10.91V10.9h478.18V489.1z M30.47,469.54h439.07V30.46H30.47V469.54z"/>
	</g>
</g>
</svg>
