<?xml version="1.0" encoding="utf-8"?>
<!-- Generator: Adobe Illustrator 24.0.2, SVG Export Plug-In . SVG Version: 6.00 Build 0)  -->
<svg version="1.1" id="Capa_1" xmlns="http://www.w3.org/2000/svg" xmlns:xlink="http://www.w3.org/1999/xlink" x="0px" y="0px"
	 viewBox="0 0 500 500" style="enable-background:new 0 0 500 500;" xml:space="preserve">
<style type="text/css">
	.st0{fill:url(#SVGID_1_);}
	.st1{fill:#FFFFFF;}
</style>
<g>
	
		<linearGradient id="SVGID_1_" gradientUnits="userSpaceOnUse" x1="22.2" y1="251.395" x2="482.61" y2="251.395" gradientTransform="matrix(1 0 0 -1 0 502)">
		<stop  offset="0" style="stop-color:#323638"/>
		<stop  offset="1" style="stop-color:#1A1C1D"/>
	</linearGradient>
	<rect x="22.2" y="20.4" class="st0" width="460.4" height="460.4"/>
	<g>
		<path class="st1" d="M139.7,226h-7.5v-13.7H132c-2.6,10-10.4,15.1-20.2,15.1c-26.2,0-28.2-26-28.2-46.7c0-20.5,3.7-45.2,29.1-45.2
			c16.5,0,26.2,10.7,26.2,26.8v0.6H129c-0.1-10.8-4.7-18.3-15.8-18.5h-0.5c-18.8,0-19,21.8-19,36.7v3.2c0,13.6,0.6,33.7,16.7,34.3
			h1.3c16.3,0,18.3-15.1,18.3-28.4v-1.3h-19.6v-8.8h29.3V226z"/>
		<path class="st1" d="M168.9,225.3h-9.7v-87.9h22.6c17.9,0,29.6,4.6,29.6,23.7v1.4c-0.3,10.3-6.7,17.7-16.9,19.1v0.2
			c11.4,1.1,14.2,4.7,15.6,16.4c0.3,6.6,0.9,13,1.9,19.6c0.4,1.6,1.1,5.5,3.4,5.5v2h-11.4c-2.1-5.6-3.1-16.5-3.1-22.4
			c0-8.8-3.5-16.3-15-16.3h-17V225.3z M168.9,177.8h15.4c4.6-0.1,17-0.8,17-15.7v-0.5c-0.2-15.1-12.1-15.5-18.6-15.5h-13.7V177.8z"
			/>
		<path class="st1" d="M230.2,137.3h9.7v64c0,6.9,1.7,17.2,16.7,17.2c15,0,16.7-10.3,16.7-17.2v-64h9.7v66.7
			c0,15.7-10.4,23.3-26.4,23.3c-15.9,0-26.4-7.6-26.4-23.3V137.3z"/>
		<path class="st1" d="M302.5,225.3v-87.9h23.1c6.8,0,15.4,0.8,20.5,5.7c5.3,4.9,7.2,11.7,7.2,18.8c0,9.7-2.9,19.2-12.4,23.6
			c-6.1,2.6-16.1,2.6-22.8,2.6h-5.9v37.3L302.5,225.3L302.5,225.3z M312.3,179.2h9.5c13.3-0.1,21.5-2,21.5-16.8v-0.4
			c0-13.5-8.2-16-19.2-16h-11.7L312.3,179.2L312.3,179.2z"/>
		<path class="st1" d="M393.8,135.6c25.2,0,28.8,22.9,28.8,42.8v1.1c-0.1,24.4-3.3,48-29,48c-25.7,0-28.8-23.6-29-48
			C364.6,159.3,367.6,135.6,393.8,135.6z M412.5,178.8c0-19.2-3.9-34.5-19.1-34.5c-14.8,0-18.6,15.3-18.6,34.5v0.8
			c0.1,25.4,2.7,38.9,18.9,38.9c16.2,0,18.8-13.5,18.9-38.9L412.5,178.8L412.5,178.8z"/>
		<path class="st1" d="M81.7,350.5v-88h20.7v70.4h25.2v17.6H81.7z"/>
		<polygon class="st1" points="174.8,245.1 163.1,262.5 142.4,262.5 154.2,245.1 		"/>
		<rect x="142.4" y="271.2" class="st1" width="20.6" height="79.3"/>
		<path class="st1" d="M182.3,350.5v-88h24.5c8,0,19.5,0.7,25.2,7.3c4.8,5.4,5.8,12,5.8,19.1c0,9.5-2.2,20.2-11.6,24.5
			c-7.2,3.5-15.5,2.5-23.2,2.8v34.2L182.3,350.5L182.3,350.5z M203,300.4c3.9-0.1,8.3,0.4,11.6-2.2c2.1-2.4,2.6-5.9,2.6-8.9
			c0-3.4-0.3-8.5-3.9-10.2c-2-0.7-4.8-0.7-8.1-0.7H203L203,300.4L203,300.4z"/>
		<path class="st1" d="M245.2,350.5l19.2-88h24.9l19.1,88h-20.9l-2.9-17.1h-16.2l-2.5,17.1H245.2z M276.8,278.4h-0.2l-6,39.4h12
			L276.8,278.4z"/>
		<path class="st1" d="M342,350.5h-20.6v-88h30.1c16.9,0,25.3,6.8,25.3,24.3c0,9.4-2.2,16.1-10.9,20v0.3c5.8,1.3,9.9,5.3,10.2,11.4
			c0.6,7,0.7,22.2,1.9,27.8c0.5,1.2,1,2.2,2,3v1.2h-22.5c-0.6-1.6-1-3.3-1.2-5c-0.4-7.8,0.1-15-0.5-20.4c-0.6-5.4-2.2-8.9-7-9.3
			h-6.8L342,350.5L342,350.5z M342,299.9h7c6,0,7.4-5.5,7.4-10.9c0-10.4-4.4-10.9-14.5-10.7L342,299.9L342,299.9z"/>
		<path class="st1" d="M394.7,350.5v-88h20.6v88H394.7z"/>
		<path class="st1" d="M489.1,489.1H10.9V10.9h478.2V489.1z M30.5,469.5h439.1V30.5H30.5V469.5z"/>
	</g>
</g>
</svg>
