<svg xmlns="http://www.w3.org/2000/svg" xmlns:xlink="http://www.w3.org/1999/xlink" viewBox="0 0 356.04 119.66"><defs><style>.cls-1{fill:#fff;}.cls-2{clip-path:url(#clip-path);}.cls-3{clip-path:url(#clip-path-2);}.cls-4{clip-path:url(#clip-path-3);}.cls-5{clip-path:url(#clip-path-4);}.cls-6{clip-path:url(#clip-path-5);}.cls-7{clip-path:url(#clip-path-6);}</style><clipPath id="clip-path" transform="translate(14.47 6.34)"><path class="cls-1" d="M12.9,20.56c1.16-.34,2.44-.74,3.84-1.18s3-.85,4.71-1.23a57.1,57.1,0,0,1,5.84-.92,68.81,68.81,0,0,1,7.31-.36q12.09,0,16.59,7t1.53,19.05L45.76,72H30.51l6.75-28.47c.42-1.77.73-3.49,1-5.17a12.58,12.58,0,0,0-.05-4.4,5.23,5.23,0,0,0-1.9-3.07,7.3,7.3,0,0,0-4.55-1.18,30.09,30.09,0,0,0-6,.62L15.76,72H.51Z"/></clipPath><clipPath id="clip-path-2" transform="translate(14.47 6.34)"><path class="cls-1" d="M59.59,50.87a36,36,0,0,1,2.3-12.7,34.71,34.71,0,0,1,6.5-10.91,32.3,32.3,0,0,1,10.19-7.68,29.79,29.79,0,0,1,13.26-2.92,21,21,0,0,1,6.65,1,16,16,0,0,1,5.38,3,13.27,13.27,0,0,1,3.58,4.75,15.36,15.36,0,0,1,1.28,6.4,17.68,17.68,0,0,1-2.55,9.72A19.24,19.24,0,0,1,99.06,48a35.36,35.36,0,0,1-10.8,3.64,76.84,76.84,0,0,1-13.61,1.13c.48,2.86,1.52,4.9,3.12,6.09s4.15,1.79,7.63,1.79a40,40,0,0,0,6.66-.57,34,34,0,0,0,6.35-1.69l1.13,12a46.5,46.5,0,0,1-7.32,2,47.43,47.43,0,0,1-9.68.92,28,28,0,0,1-10.7-1.79,18.14,18.14,0,0,1-11-12A29.13,29.13,0,0,1,59.59,50.87ZM89.38,28.75a12.87,12.87,0,0,0-9.16,3.73,18.09,18.09,0,0,0-5.17,9.88,57.56,57.56,0,0,0,10.24-1.07,22.11,22.11,0,0,0,6-2.1,6.87,6.87,0,0,0,2.87-2.66,6.35,6.35,0,0,0,.72-2.87C94.91,30.39,93.07,28.75,89.38,28.75Z"/></clipPath><clipPath id="clip-path-3" transform="translate(14.47 6.34)"><path class="cls-1" d="M133.09,73.39a24.74,24.74,0,0,1-9.41-1.63,17.46,17.46,0,0,1-6.61-4.61,20,20,0,0,1-3.94-7,28.43,28.43,0,0,1-1.33-9,39.55,39.55,0,0,1,2-12.28,35.2,35.2,0,0,1,5.88-11.06,31.36,31.36,0,0,1,9.52-8,26.18,26.18,0,0,1,12.9-3.12,24.88,24.88,0,0,1,9.37,1.64,17.34,17.34,0,0,1,6.66,4.61,20,20,0,0,1,3.93,7,28.47,28.47,0,0,1,1.34,9,40.62,40.62,0,0,1-1.94,12.28,35.68,35.68,0,0,1-5.73,11.06,30.13,30.13,0,0,1-9.47,8A27,27,0,0,1,133.09,73.39Zm7.59-43.82a9.6,9.6,0,0,0-5.94,1.94,16.76,16.76,0,0,0-4.3,4.91,24.31,24.31,0,0,0-2.61,6.5,28.1,28.1,0,0,0-.87,6.71c0,3.48.54,6.16,1.64,8s3.07,2.81,5.94,2.81a9.54,9.54,0,0,0,5.94-1.95,16.78,16.78,0,0,0,4.3-4.91,24.31,24.31,0,0,0,2.61-6.5,28.09,28.09,0,0,0,.87-6.7q0-5.22-1.64-8T140.68,29.57Z"/></clipPath><clipPath id="clip-path-4" transform="translate(14.47 6.34)"><path class="cls-1" d="M177.84,72Q175.17,61.73,173,48.05a285.21,285.21,0,0,1-3-29.94h15.77q.09,4,.3,8.75t.51,9.57c.21,3.22.44,6.34.72,9.37s.58,5.78.92,8.24q2.25-3.07,5.07-7.58T198.83,37q2.65-4.92,4.92-9.88a73.37,73.37,0,0,0,3.48-9.06h16.18a135,135,0,0,1-6.6,14.95q-3.94,7.68-8.45,14.84T199.2,61.3q-4.65,6.24-8.65,10.65H177.84Z"/></clipPath><clipPath id="clip-path-5" transform="translate(14.47 6.34)"><path class="cls-1" d="M268.76,48.72a33.85,33.85,0,0,0-.82,11.72,41.59,41.59,0,0,0,2.36,10.5l-13.62,2c-.41-.82-.79-1.61-1.13-2.36s-.68-1.6-1-2.56a27.18,27.18,0,0,1-6.35,3.89,19,19,0,0,1-7.78,1.53,19.58,19.58,0,0,1-8.76-1.79,16.57,16.57,0,0,1-5.94-4.81,19.35,19.35,0,0,1-3.32-7.06,34.82,34.82,0,0,1-1-8.65,35.21,35.21,0,0,1,2.51-13.31,33.92,33.92,0,0,1,7-10.91,32.65,32.65,0,0,1,10.5-7.32,32.24,32.24,0,0,1,13.11-2.66c.62,0,1.69,0,3.23.1s3.29.22,5.27.46a50.76,50.76,0,0,1,6.25,1.18,32.76,32.76,0,0,1,6.25,2.25ZM258.11,29.87c-.89-.14-1.69-.24-2.41-.31s-1.59-.1-2.61-.1a12.77,12.77,0,0,0-6.5,1.74,18.6,18.6,0,0,0-5.27,4.56,21.66,21.66,0,0,0-3.53,6.5,23,23,0,0,0-1.28,7.68,15.73,15.73,0,0,0,1.64,7.78c1.09,1.91,3.11,2.86,6,2.86a9.53,9.53,0,0,0,4.25-.92,15.8,15.8,0,0,0,4-3.07q.21-2.56.67-5.38t1-5.17Z"/></clipPath><clipPath id="clip-path-6" transform="translate(14.47 6.34)"><path class="cls-1" d="M279.51,50.45a37.76,37.76,0,0,1,2.25-13.1,32.16,32.16,0,0,1,6.45-10.75,30.32,30.32,0,0,1,10.19-7.27,32.62,32.62,0,0,1,13.36-2.66,35.65,35.65,0,0,1,8.25.87,32.4,32.4,0,0,1,6.6,2.3l-5.23,11.88c-1.37-.54-2.78-1-4.25-1.48a18.8,18.8,0,0,0-5.37-.67q-7.68,0-12.08,5.17t-4.4,14.08a14.43,14.43,0,0,0,2.25,8.44q2.25,3.23,8.29,3.23a26.27,26.27,0,0,0,5.73-.61,27.32,27.32,0,0,0,4.91-1.54l1.13,12.18a52.56,52.56,0,0,1-6.3,2,34.47,34.47,0,0,1-8.35.87,27.78,27.78,0,0,1-10.75-1.84,20.35,20.35,0,0,1-7.27-5,18.81,18.81,0,0,1-4.15-7.33A30.51,30.51,0,0,1,279.51,50.45Z"/></clipPath></defs><title>neovac-mono</title><g id="Capa_2" data-name="Capa 2"><g id="Capa_1-2" data-name="Capa 1"><path class="cls-1" d="M341.57,6.79A7.2,7.2,0,0,1,341,9.66a6.35,6.35,0,0,1-1.41,2.12,6.11,6.11,0,0,1-2.06,1.34,6.61,6.61,0,0,1-2.47.46,6.53,6.53,0,0,1-2.44-.46,6,6,0,0,1-2.06-1.34,6.65,6.65,0,0,1-1.43-2.12,7.38,7.38,0,0,1-.53-2.87,7.44,7.44,0,0,1,.53-2.86A6.44,6.44,0,0,1,330.6,1.8,6.16,6.16,0,0,1,332.66.46,6.77,6.77,0,0,1,335.1,0a6.65,6.65,0,0,1,2.47.46,5.87,5.87,0,0,1,2.06,1.34A6.39,6.39,0,0,1,341,3.93,7.19,7.19,0,0,1,341.57,6.79Zm-1.63,0a6.14,6.14,0,0,0-.36-2.15,5,5,0,0,0-1-1.66,4.59,4.59,0,0,0-1.53-1.07,5.32,5.32,0,0,0-3.9,0A4.32,4.32,0,0,0,331.63,3a5,5,0,0,0-1,1.66,6.14,6.14,0,0,0-.36,2.15,6.1,6.1,0,0,0,.36,2.15,5,5,0,0,0,1,1.67,4.45,4.45,0,0,0,1.52,1.07,5,5,0,0,0,2,.38,4.78,4.78,0,0,0,1.95-.38,4.45,4.45,0,0,0,1.53-1.07,4.89,4.89,0,0,0,1-1.67A5.92,5.92,0,0,0,339.94,6.79Zm-3.33,3.46c-.25-.52-.5-1-.75-1.43a9.17,9.17,0,0,0-.72-1.08h-1v2.51h-1.57V3.42a8,8,0,0,1,1.15-.21,9.21,9.21,0,0,1,1,0,3.94,3.94,0,0,1,2.35.58,2,2,0,0,1,.8,1.77,2,2,0,0,1-.31,1.11,2,2,0,0,1-.89.74q.38.56.81,1.26a14.78,14.78,0,0,1,.85,1.65h-1.7Zm-2.48-3.78h.53a3,3,0,0,0,1.16-.19.79.79,0,0,0,.43-.8.78.78,0,0,0-.4-.74,2.2,2.2,0,0,0-1-.21h-.33l-.36,0V6.47Z" transform="translate(14.47 6.34)"/><path class="cls-1" d="M12.9,20.56c1.16-.34,2.44-.74,3.84-1.18s3-.85,4.71-1.23a57.1,57.1,0,0,1,5.84-.92,68.81,68.81,0,0,1,7.31-.36q12.09,0,16.59,7t1.53,19.05L45.76,72H30.51l6.75-28.47c.42-1.77.73-3.49,1-5.17a12.58,12.58,0,0,0-.05-4.4,5.23,5.23,0,0,0-1.9-3.07,7.3,7.3,0,0,0-4.55-1.18,30.09,30.09,0,0,0-6,.62L15.76,72H.51Z" transform="translate(14.47 6.34)"/><g class="cls-2"><rect class="cls-1" width="351.15" height="98.4"/></g><path class="cls-1" d="M59.59,50.87a36,36,0,0,1,2.3-12.7,34.71,34.71,0,0,1,6.5-10.91,32.3,32.3,0,0,1,10.19-7.68,29.79,29.79,0,0,1,13.26-2.92,21,21,0,0,1,6.65,1,16,16,0,0,1,5.38,3,13.27,13.27,0,0,1,3.58,4.75,15.36,15.36,0,0,1,1.28,6.4,17.68,17.68,0,0,1-2.55,9.72A19.24,19.24,0,0,1,99.06,48a35.36,35.36,0,0,1-10.8,3.64,76.84,76.84,0,0,1-13.61,1.13c.48,2.86,1.52,4.9,3.12,6.09s4.15,1.79,7.63,1.79a40,40,0,0,0,6.66-.57,34,34,0,0,0,6.35-1.69l1.13,12a46.5,46.5,0,0,1-7.32,2,47.43,47.43,0,0,1-9.68.92,28,28,0,0,1-10.7-1.79,18.14,18.14,0,0,1-11-12A29.13,29.13,0,0,1,59.59,50.87ZM89.38,28.75a12.87,12.87,0,0,0-9.16,3.73,18.09,18.09,0,0,0-5.17,9.88,57.56,57.56,0,0,0,10.24-1.07,22.11,22.11,0,0,0,6-2.1,6.87,6.87,0,0,0,2.87-2.66,6.35,6.35,0,0,0,.72-2.87C94.91,30.39,93.07,28.75,89.38,28.75Z" transform="translate(14.47 6.34)"/><g class="cls-3"><rect class="cls-1" width="351.15" height="98.4"/></g><path class="cls-1" d="M133.09,73.39a24.74,24.74,0,0,1-9.41-1.63,17.46,17.46,0,0,1-6.61-4.61,20,20,0,0,1-3.94-7,28.43,28.43,0,0,1-1.33-9,39.55,39.55,0,0,1,2-12.28,35.2,35.2,0,0,1,5.88-11.06,31.36,31.36,0,0,1,9.52-8,26.18,26.18,0,0,1,12.9-3.12,24.88,24.88,0,0,1,9.37,1.64,17.34,17.34,0,0,1,6.66,4.61,20,20,0,0,1,3.93,7,28.47,28.47,0,0,1,1.34,9,40.62,40.62,0,0,1-1.94,12.28,35.68,35.68,0,0,1-5.73,11.06,30.13,30.13,0,0,1-9.47,8A27,27,0,0,1,133.09,73.39Zm7.59-43.82a9.6,9.6,0,0,0-5.94,1.94,16.76,16.76,0,0,0-4.3,4.91,24.31,24.31,0,0,0-2.61,6.5,28.1,28.1,0,0,0-.87,6.71c0,3.48.54,6.16,1.64,8s3.07,2.81,5.94,2.81a9.54,9.54,0,0,0,5.94-1.95,16.78,16.78,0,0,0,4.3-4.91,24.31,24.31,0,0,0,2.61-6.5,28.09,28.09,0,0,0,.87-6.7q0-5.22-1.64-8T140.68,29.57Z" transform="translate(14.47 6.34)"/><g class="cls-4"><rect class="cls-1" width="351.15" height="98.4"/></g><path class="cls-1" d="M177.84,72Q175.17,61.73,173,48.05a285.21,285.21,0,0,1-3-29.94h15.77q.09,4,.3,8.75t.51,9.57c.21,3.22.44,6.34.72,9.37s.58,5.78.92,8.24q2.25-3.07,5.07-7.58T198.83,37q2.65-4.92,4.92-9.88a73.37,73.37,0,0,0,3.48-9.06h16.18a135,135,0,0,1-6.6,14.95q-3.94,7.68-8.45,14.84T199.2,61.3q-4.65,6.24-8.65,10.65H177.84Z" transform="translate(14.47 6.34)"/><g class="cls-5"><rect class="cls-1" width="351.15" height="98.4"/></g><path class="cls-1" d="M268.76,48.72a33.85,33.85,0,0,0-.82,11.72,41.59,41.59,0,0,0,2.36,10.5l-13.62,2c-.41-.82-.79-1.61-1.13-2.36s-.68-1.6-1-2.56a27.18,27.18,0,0,1-6.35,3.89,19,19,0,0,1-7.78,1.53,19.58,19.58,0,0,1-8.76-1.79,16.57,16.57,0,0,1-5.94-4.81,19.35,19.35,0,0,1-3.32-7.06,34.82,34.82,0,0,1-1-8.65,35.21,35.21,0,0,1,2.51-13.31,33.92,33.92,0,0,1,7-10.91,32.65,32.65,0,0,1,10.5-7.32,32.24,32.24,0,0,1,13.11-2.66c.62,0,1.69,0,3.23.1s3.29.22,5.27.46a50.76,50.76,0,0,1,6.25,1.18,32.76,32.76,0,0,1,6.25,2.25ZM258.11,29.87c-.89-.14-1.69-.24-2.41-.31s-1.59-.1-2.61-.1a12.77,12.77,0,0,0-6.5,1.74,18.6,18.6,0,0,0-5.27,4.56,21.66,21.66,0,0,0-3.53,6.5,23,23,0,0,0-1.28,7.68,15.73,15.73,0,0,0,1.64,7.78c1.09,1.91,3.11,2.86,6,2.86a9.53,9.53,0,0,0,4.25-.92,15.8,15.8,0,0,0,4-3.07q.21-2.56.67-5.38t1-5.17Z" transform="translate(14.47 6.34)"/><g class="cls-6"><rect class="cls-1" width="351.15" height="98.4"/></g><path class="cls-1" d="M279.51,50.45a37.76,37.76,0,0,1,2.25-13.1,32.16,32.16,0,0,1,6.45-10.75,30.32,30.32,0,0,1,10.19-7.27,32.62,32.62,0,0,1,13.36-2.66,35.65,35.65,0,0,1,8.25.87,32.4,32.4,0,0,1,6.6,2.3l-5.23,11.88c-1.37-.54-2.78-1-4.25-1.48a18.8,18.8,0,0,0-5.37-.67q-7.68,0-12.08,5.17t-4.4,14.08a14.43,14.43,0,0,0,2.25,8.44q2.25,3.23,8.29,3.23a26.27,26.27,0,0,0,5.73-.61,27.32,27.32,0,0,0,4.91-1.54l1.13,12.18a52.56,52.56,0,0,1-6.3,2,34.47,34.47,0,0,1-8.35.87,27.78,27.78,0,0,1-10.75-1.84,20.35,20.35,0,0,1-7.27-5,18.81,18.81,0,0,1-4.15-7.33A30.51,30.51,0,0,1,279.51,50.45Z" transform="translate(14.47 6.34)"/><g class="cls-7"><rect class="cls-1" width="351.15" height="98.4"/></g><path class="cls-1" d="M6.14,108a7.62,7.62,0,0,1-2.71-.44,5.43,5.43,0,0,1-1.91-1.23,5.21,5.21,0,0,1-1.15-1.83A6.8,6.8,0,0,1,0,102.3a13.21,13.21,0,0,1,.65-4.16A11.42,11.42,0,0,1,2.5,94.59a9,9,0,0,1,2.93-2.45,8.24,8.24,0,0,1,3.92-.91,6.36,6.36,0,0,1,2.17.32,4,4,0,0,1,1.48.88,3.58,3.58,0,0,1,.85,1.29,4,4,0,0,1,.28,1.49,5.25,5.25,0,0,1-.53,2.45,5,5,0,0,1-1.39,1.67,6.06,6.06,0,0,1-2,1,18,18,0,0,1-2.41.58,21.06,21.06,0,0,1-2.53.3l-2.42.14a3.82,3.82,0,0,0,0,.4v.25A4.82,4.82,0,0,0,3,103.39a2.37,2.37,0,0,0,.63,1.11,3,3,0,0,0,1.28.76,6.68,6.68,0,0,0,2.14.27,7.43,7.43,0,0,0,1.22-.1,8.77,8.77,0,0,0,1.2-.28c.38-.11.72-.22,1-.34a2,2,0,0,0,.63-.33l.24,2.43a9.88,9.88,0,0,1-2,.73A11.5,11.5,0,0,1,6.14,108ZM3.22,99.21c1.19,0,2.29-.12,3.27-.23a10.62,10.62,0,0,0,2.56-.59,4,4,0,0,0,1.68-1.13,2.78,2.78,0,0,0,.6-1.85,2.08,2.08,0,0,0-.1-.58,1.55,1.55,0,0,0-.37-.57,2,2,0,0,0-.72-.43A3.42,3.42,0,0,0,9,93.66a4.38,4.38,0,0,0-2,.47A5.9,5.9,0,0,0,5.3,95.34,7.58,7.58,0,0,0,4,97.1,8.18,8.18,0,0,0,3.22,99.21Z" transform="translate(14.47 6.34)"/><path class="cls-1" d="M25.73,97.35c.86-1,1.66-2,2.39-3s1.36-1.88,1.9-2.75h3.11c-.88,1.3-1.86,2.61-2.91,3.93S28.08,98.15,27,99.44c.66,1.29,1.31,2.64,2,4a38.89,38.89,0,0,1,1.69,4.15h-3c-.31-.93-.71-1.92-1.19-3s-1-2.1-1.43-3.08l-5.33,6.08H16.36l7.4-8.27-4-7.77H23Z" transform="translate(14.47 6.34)"/><path class="cls-1" d="M45.34,91.19a7.28,7.28,0,0,1,2.61.43,4.78,4.78,0,0,1,2.87,3,7,7,0,0,1,.35,2.26,13.25,13.25,0,0,1-.65,4.12,10.09,10.09,0,0,1-2,3.53A9.69,9.69,0,0,1,45.14,107a11.71,11.71,0,0,1-4.86.93l-.74,0a4.49,4.49,0,0,1-.71-.1l-1.33,5.55H34.63l5.06-21.06a14,14,0,0,1,2.82-.8A17.58,17.58,0,0,1,45.34,91.19Zm-5.92,14.18a4.41,4.41,0,0,0,.66.08h.7a7.2,7.2,0,0,0,3.14-.67A6.89,6.89,0,0,0,46.28,103a8.22,8.22,0,0,0,1.49-2.65,9.4,9.4,0,0,0,.53-3.13,5.9,5.9,0,0,0-.15-1.33,2.67,2.67,0,0,0-.57-1.14,2.9,2.9,0,0,0-1.13-.79,4.92,4.92,0,0,0-1.82-.29,7,7,0,0,0-1.42.14c-.43.1-.79.18-1.08.26Z" transform="translate(14.47 6.34)"/><path class="cls-1" d="M62.79,108a7.58,7.58,0,0,1-2.71-.44,5.43,5.43,0,0,1-1.91-1.23A4.79,4.79,0,0,1,57,104.52a6.8,6.8,0,0,1-.37-2.22,13.5,13.5,0,0,1,.65-4.16,11.42,11.42,0,0,1,1.85-3.55,9,9,0,0,1,2.93-2.45A8.2,8.2,0,0,1,66,91.23a6.42,6.42,0,0,1,2.18.32,4,4,0,0,1,1.48.88,3.46,3.46,0,0,1,.85,1.29,4,4,0,0,1,.28,1.49,5.25,5.25,0,0,1-.52,2.45,5,5,0,0,1-1.39,1.67,6.06,6.06,0,0,1-2,1,18.28,18.28,0,0,1-2.4.58,21.3,21.3,0,0,1-2.53.3l-2.42.14a2.23,2.23,0,0,0,0,.4v.25a5.23,5.23,0,0,0,.17,1.34,2.46,2.46,0,0,0,.63,1.11,3,3,0,0,0,1.28.76,6.68,6.68,0,0,0,2.14.27,7.43,7.43,0,0,0,1.22-.1,8.77,8.77,0,0,0,1.2-.28c.38-.11.72-.22,1-.34a2,2,0,0,0,.63-.33l.25,2.43a9.88,9.88,0,0,1-2,.73A11.93,11.93,0,0,1,62.79,108Zm-2.92-8.81c1.19,0,2.28-.12,3.26-.23a10.62,10.62,0,0,0,2.56-.59,4,4,0,0,0,1.68-1.13,2.78,2.78,0,0,0,.6-1.85,2.08,2.08,0,0,0-.1-.58,1.55,1.55,0,0,0-.37-.57,2.09,2.09,0,0,0-.72-.43,3.44,3.44,0,0,0-1.15-.17,4.38,4.38,0,0,0-2,.47,5.9,5.9,0,0,0-1.68,1.21,7.92,7.92,0,0,0-1.27,1.76A8.91,8.91,0,0,0,59.87,99.21Z" transform="translate(14.47 6.34)"/><path class="cls-1" d="M84.16,91.25a8.25,8.25,0,0,1,.83,0,9,9,0,0,1,.91.1l.82.15a2.41,2.41,0,0,1,.55.17l-.83,2.49A6.52,6.52,0,0,0,85,93.82a9.27,9.27,0,0,0-1.54-.12,9.07,9.07,0,0,0-1.28.09,5.62,5.62,0,0,0-1.1.25l-3.27,13.57H75l3.7-15.42a16.09,16.09,0,0,1,5.5-.94Z" transform="translate(14.47 6.34)"/><path class="cls-1" d="M95,108.06a4.81,4.81,0,0,1-3.39-1,3.88,3.88,0,0,1-1.08-3,15.61,15.61,0,0,1,.43-3.24l3.3-13.72,3-.49-1.2,5h5.46L100.93,94H95.47l-1.69,7.09a10.29,10.29,0,0,0-.37,2.53,1.79,1.79,0,0,0,.56,1.47,3,3,0,0,0,1.85.44,5.28,5.28,0,0,0,1.76-.29,8.53,8.53,0,0,0,1.33-.54l.21,2.44a7.85,7.85,0,0,1-1.57.6A9.38,9.38,0,0,1,95,108.06Z" transform="translate(14.47 6.34)"/><path class="cls-1" d="M110.59,108a5.19,5.19,0,0,1-4-1.49,5.7,5.7,0,0,1-1.44-4.12,15.07,15.07,0,0,1,.51-3.76A11.87,11.87,0,0,1,107.32,95a9.21,9.21,0,0,1,2.87-2.75,8,8,0,0,1,4.26-1.08,5.25,5.25,0,0,1,4,1.49,5.69,5.69,0,0,1,1.43,4.12,15.2,15.2,0,0,1-.51,3.77,11.64,11.64,0,0,1-1.62,3.63,9.2,9.2,0,0,1-2.87,2.75A8.05,8.05,0,0,1,110.59,108Zm.49-2.43a4.13,4.13,0,0,0,2.48-.8,6.9,6.9,0,0,0,1.85-2.05,10.65,10.65,0,0,0,1.16-2.76,11.21,11.21,0,0,0,.4-2.92,4.16,4.16,0,0,0-.68-2.5,2.7,2.7,0,0,0-2.34-.93,4.18,4.18,0,0,0-2.49.8,7,7,0,0,0-1.85,2,10.3,10.3,0,0,0-1.15,2.76,11.22,11.22,0,0,0-.4,2.93,4.11,4.11,0,0,0,.68,2.49A2.7,2.7,0,0,0,111.08,105.59Z" transform="translate(14.47 6.34)"/><path class="cls-1" d="M128.65,105.62a7.34,7.34,0,0,0,1.31-.12,3.76,3.76,0,0,0,1.17-.41,2.31,2.31,0,0,0,.83-.75,2.33,2.33,0,0,0,.17-2,1.81,1.81,0,0,0-.5-.66,5,5,0,0,0-.85-.6l-1.22-.67c-.47-.22-.91-.45-1.29-.67a4.34,4.34,0,0,1-1-.81,3.19,3.19,0,0,1-.7-1.1,4.31,4.31,0,0,1-.24-1.53A4.6,4.6,0,0,1,128,92.59a7.32,7.32,0,0,1,4.84-1.41,10.73,10.73,0,0,1,2.61.29A6.65,6.65,0,0,1,137,92l-1.08,2.34a7.43,7.43,0,0,0-1.39-.53,7.35,7.35,0,0,0-2.12-.28,5.81,5.81,0,0,0-1.17.12,3.31,3.31,0,0,0-1.06.42A2.17,2.17,0,0,0,129.08,96a1.74,1.74,0,0,0,.65,1.38,8.74,8.74,0,0,0,1.94,1.12,14.44,14.44,0,0,1,1.43.76,4.93,4.93,0,0,1,1.08.86,3.18,3.18,0,0,1,.68,1.12,4.71,4.71,0,0,1,.23,1.54,5,5,0,0,1-.49,2.28,4.48,4.48,0,0,1-1.38,1.64,6.05,6.05,0,0,1-2.08,1,10.28,10.28,0,0,1-2.62.32,11.07,11.07,0,0,1-1.9-.14,10.76,10.76,0,0,1-1.48-.32,5.86,5.86,0,0,1-1-.39c-.28-.13-.49-.24-.63-.32l1.11-2.34.6.31a9,9,0,0,0,.93.37,8.2,8.2,0,0,0,1.19.31A6.09,6.09,0,0,0,128.65,105.62Z" transform="translate(14.47 6.34)"/><path class="cls-1" d="M157.52,108a7.58,7.58,0,0,1-2.71-.44,5.43,5.43,0,0,1-1.91-1.23,5,5,0,0,1-1.14-1.83,6.8,6.8,0,0,1-.37-2.22,13.5,13.5,0,0,1,.65-4.16,11.42,11.42,0,0,1,1.85-3.55,8.89,8.89,0,0,1,2.93-2.45,8.2,8.2,0,0,1,3.91-.91,6.46,6.46,0,0,1,2.18.32,4,4,0,0,1,1.48.88,3.46,3.46,0,0,1,.85,1.29,4.23,4.23,0,0,1,.28,1.49,5.25,5.25,0,0,1-.53,2.45,5,5,0,0,1-1.39,1.67,6,6,0,0,1-2,1,18.28,18.28,0,0,1-2.4.58,21.06,21.06,0,0,1-2.53.3l-2.42.14a3.43,3.43,0,0,0,0,.4v.25a4.82,4.82,0,0,0,.17,1.34,2.46,2.46,0,0,0,.63,1.11,3,3,0,0,0,1.28.76,6.64,6.64,0,0,0,2.14.27,7.43,7.43,0,0,0,1.22-.1,8.77,8.77,0,0,0,1.2-.28c.38-.12.72-.22,1-.34a2.1,2.1,0,0,0,.63-.33l.25,2.43a10.39,10.39,0,0,1-2,.73A12,12,0,0,1,157.52,108Zm-2.93-8.81c1.19,0,2.28-.12,3.26-.23a10.62,10.62,0,0,0,2.56-.59,4,4,0,0,0,1.68-1.13,2.78,2.78,0,0,0,.6-1.85,1.8,1.8,0,0,0-.11-.58,1.44,1.44,0,0,0-.37-.57,2.09,2.09,0,0,0-.72-.43,3.42,3.42,0,0,0-1.14-.17,4.38,4.38,0,0,0-2,.47,5.9,5.9,0,0,0-1.68,1.21,7.62,7.62,0,0,0-1.27,1.76A9.36,9.36,0,0,0,154.59,99.21Z" transform="translate(14.47 6.34)"/><path class="cls-1" d="M172.56,107.63H169.7l3.69-15.42a23.51,23.51,0,0,1,3.07-.7,19.55,19.55,0,0,1,2.95-.26,6.85,6.85,0,0,1,2.39.38,4.25,4.25,0,0,1,1.62,1.05,4.05,4.05,0,0,1,.91,1.61,6.68,6.68,0,0,1,.29,2,9.84,9.84,0,0,1-.12,1.49c-.08.53-.19,1-.31,1.59l-2,8.21h-2.87l1.82-7.59c.14-.57.28-1.16.42-1.76a7.41,7.41,0,0,0,.2-1.7,3.11,3.11,0,0,0-.68-2,3.14,3.14,0,0,0-2.53-.82,12.38,12.38,0,0,0-1.51.09,6.14,6.14,0,0,0-1.23.25Z" transform="translate(14.47 6.34)"/><path class="cls-1" d="M203.58,107.63c-.24-1-.48-2.2-.71-3.45s-.43-2.57-.62-3.94-.34-2.77-.46-4.24-.21-2.93-.24-4.41h2.9c0,1,.06,2.08.14,3.23s.16,2.28.26,3.42.23,2.24.37,3.3.3,2,.46,2.88a31.56,31.56,0,0,0,1.93-2.76c.67-1.06,1.31-2.17,1.93-3.33s1.18-2.33,1.69-3.5a30.38,30.38,0,0,0,1.24-3.24h2.9a36.69,36.69,0,0,1-1.73,4.23c-.7,1.46-1.45,2.9-2.27,4.3s-1.67,2.76-2.56,4.06-1.76,2.44-2.61,3.45Z" transform="translate(14.47 6.34)"/><path class="cls-1" d="M228.87,107.81c-.1-.22-.21-.48-.31-.76a4.31,4.31,0,0,1-.24-.87,9.54,9.54,0,0,1-1.82,1.23,6.64,6.64,0,0,1-5.13.18,4.09,4.09,0,0,1-1.59-1.2,5,5,0,0,1-.91-1.82,8.8,8.8,0,0,1-.29-2.31,12.17,12.17,0,0,1,.69-4,10.24,10.24,0,0,1,5.58-6,11.64,11.64,0,0,1,4.9-1,11.38,11.38,0,0,1,1.94.19,6,6,0,0,1,1.91.62l-2.37,9.69c-.11.47-.19.92-.26,1.35a7.49,7.49,0,0,0-.11,1.36,8.63,8.63,0,0,0,.12,1.43,9.24,9.24,0,0,0,.43,1.56Zm-4.6-2.22a4.23,4.23,0,0,0,2.22-.55,7.6,7.6,0,0,0,1.61-1.29,10.59,10.59,0,0,1,.11-1.09c0-.38.11-.77.2-1.16l1.85-7.65a2.36,2.36,0,0,0-.51-.1l-.63,0a7.12,7.12,0,0,0-3.17.68,7.4,7.4,0,0,0-2.42,1.8A7.82,7.82,0,0,0,222,98.82a9.16,9.16,0,0,0-.54,3.13,6.61,6.61,0,0,0,.13,1.31,3.35,3.35,0,0,0,.44,1.17,2.63,2.63,0,0,0,.86.83A2.6,2.6,0,0,0,224.27,105.59Z" transform="translate(14.47 6.34)"/><path class="cls-1" d="M238.49,101.89a13,13,0,0,1,.63-4A10.32,10.32,0,0,1,241,94.43a9,9,0,0,1,7.13-3.24,13.52,13.52,0,0,1,1.94.14,6.66,6.66,0,0,1,1.76.54l-1.08,2.4a4.23,4.23,0,0,0-1.15-.43,8,8,0,0,0-1.72-.15,5.45,5.45,0,0,0-2.71.67,6.52,6.52,0,0,0-2,1.76,7.66,7.66,0,0,0-1.29,2.53,9.92,9.92,0,0,0-.45,3,6.65,6.65,0,0,0,.17,1.51,3.23,3.23,0,0,0,.6,1.25,2.92,2.92,0,0,0,1.16.85,4.79,4.79,0,0,0,1.83.3,6.94,6.94,0,0,0,1.17-.1,11.5,11.5,0,0,0,1.15-.26c.34-.1.66-.21.94-.32a2.27,2.27,0,0,0,.6-.32l.25,2.43a7.48,7.48,0,0,1-1.82.72,10,10,0,0,1-2.81.35,7.3,7.3,0,0,1-2.62-.44,5.16,5.16,0,0,1-3.08-3.2A7.07,7.07,0,0,1,238.49,101.89Z" transform="translate(14.47 6.34)"/><path class="cls-1" d="M257.61,107.63h-2.87l3.86-16h2.87Zm7.15-21.84-5.21,3.95-1.23-1.51,4.87-4.66Z" transform="translate(14.47 6.34)"/><path class="cls-1" d="M271.64,108a5.19,5.19,0,0,1-4-1.49,5.69,5.69,0,0,1-1.43-4.12,15.07,15.07,0,0,1,.51-3.76A11.64,11.64,0,0,1,268.38,95a9.32,9.32,0,0,1,2.87-2.75,8,8,0,0,1,4.25-1.08,5.23,5.23,0,0,1,4,1.49,5.7,5.7,0,0,1,1.44,4.12,15.2,15.2,0,0,1-.51,3.77,11.87,11.87,0,0,1-1.62,3.63A9.2,9.2,0,0,1,275.9,107,8.12,8.12,0,0,1,271.64,108Zm.49-2.43a4.13,4.13,0,0,0,2.48-.8,6.9,6.9,0,0,0,1.85-2.05,10.3,10.3,0,0,0,1.15-2.76,11.21,11.21,0,0,0,.4-2.92,4.16,4.16,0,0,0-.68-2.5,2.71,2.71,0,0,0-2.34-.93,4.13,4.13,0,0,0-2.48.8,7,7,0,0,0-1.85,2,10.65,10.65,0,0,0-1.16,2.76,11.22,11.22,0,0,0-.4,2.93,4,4,0,0,0,.68,2.49A2.73,2.73,0,0,0,272.13,105.59Z" transform="translate(14.47 6.34)"/></g></g></svg>