<svg xmlns="http://www.w3.org/2000/svg" viewBox="0 0 315.29 93.28"><defs><style>.cls-1{fill:#fdfeff;}</style></defs><title>roica-mono</title><g id="Capa_2" data-name="Capa 2"><g id="Capa_1-2" data-name="Capa 1"><path class="cls-1" d="M61.3.84H91.4q9.9,0,15.09,5.53t5.2,14.51a16.85,16.85,0,0,1-2.62,9.27,23.5,23.5,0,0,1-6.86,6.94,6,6,0,0,1,2.24,2.74l6.32,14.55h-21L84.58,42.49a3.27,3.27,0,0,0-.91-1.37,2.35,2.35,0,0,0-1.42-.38h-.83V54.38H61.3V.84Zm25,24.2q4.9,0,4.9-4.16a4.35,4.35,0,0,0-1.12-3.29,5,5,0,0,0-3.45-1H81.42V25h4.91Z"/><path class="cls-1" d="M122.4,48.73q-7.28-6.49-7.28-21.12T122.4,6.49Q129.68,0,143.81,0t21.41,6.49q7.28,6.48,7.27,21.12t-7.27,21.12q-7.28,6.48-21.41,6.49T122.4,48.73ZM150.08,35.8Q152,33.43,152,27.61t-1.87-8.19c-1.24-1.58-3.34-2.37-6.27-2.37s-5,.79-6.28,2.37-1.87,4.31-1.87,8.19.62,6.61,1.87,8.19,3.34,2.37,6.28,2.37S148.84,37.38,150.08,35.8Z"/><path class="cls-1" d="M209,48.23q-8.1-7-8.11-20.62t8-20.62q8-7,23.82-7a49.78,49.78,0,0,1,8.86.71,49.33,49.33,0,0,1,8,2.2V20.46A36.66,36.66,0,0,0,234.09,17c-4.16,0-7.3.81-9.44,2.42s-3.2,4.35-3.2,8.23,1.1,6.56,3.28,8.19,5.37,2.45,9.52,2.45a36.73,36.73,0,0,0,15.55-3.49V52.31a47.23,47.23,0,0,1-8,2.2,50.53,50.53,0,0,1-8.85.71Q217.14,55.22,209,48.23Z"/><path class="cls-1" d="M270.84.84h20.87l20.62,53.54H291.38l-3.82-10H275l-3.82,10h-21Zm14.47,29.85-4.07-10.23-4.07,10.23Z"/><path class="cls-1" d="M0,.78V54.47H53.69V.78ZM44.38,45.16H9.31V10.09H44.38Z"/><rect class="cls-1" x="176.65" y="0.84" width="20.12" height="53.54"/><path class="cls-1" d="M315.29,7.12A7.3,7.3,0,1,1,308.05,0,7.15,7.15,0,0,1,315.29,7.12Zm-12.78,0a5.53,5.53,0,0,0,5.54,5.68,5.44,5.44,0,0,0,5.42-5.63,5.48,5.48,0,1,0-11,0Zm4.37,3.68h-1.65V3.69A18.67,18.67,0,0,1,308,3.47a3.85,3.85,0,0,1,2.43.56,1.79,1.79,0,0,1,.74,1.52,1.84,1.84,0,0,1-1.48,1.69v.09c.7.22,1,.78,1.26,1.73a6.47,6.47,0,0,0,.52,1.73H309.7a5.4,5.4,0,0,1-.56-1.73C309,8.32,308.57,8,307.66,8h-.78V10.8Zm.05-4h.78c.91,0,1.64-.3,1.64-1s-.48-1.09-1.52-1.09a4.17,4.17,0,0,0-.91.09v2Z"/><path class="cls-1" d="M64.85,84.56A7.48,7.48,0,0,1,62.91,79,7.18,7.18,0,0,1,65,73.38a8.26,8.26,0,0,1,5.77-1.9,12.54,12.54,0,0,1,2.48.21,9.15,9.15,0,0,1,2,.67v2.46A8.42,8.42,0,0,0,71.42,74a5.65,5.65,0,0,0-3.87,1.15A4.87,4.87,0,0,0,66.26,79a5.13,5.13,0,0,0,1.2,3.79A5.4,5.4,0,0,0,71.36,84a9.14,9.14,0,0,0,3.92-.82v2.52a12.26,12.26,0,0,1-4.68.82Q66.79,86.48,64.85,84.56Z"/><path class="cls-1" d="M78.27,85.34a3.91,3.91,0,0,1-1.46-3.26,4.18,4.18,0,0,1,1.44-3.35,6.52,6.52,0,0,1,4.33-1.23H87.2v-.64a3.47,3.47,0,0,0-.32-1.66,1.9,1.9,0,0,0-1.17-.86,8.47,8.47,0,0,0-2.43-.27,14.5,14.5,0,0,0-4.77.76V72.37a13.32,13.32,0,0,1,2.43-.64,17.36,17.36,0,0,1,3-.24,7.59,7.59,0,0,1,4.84,1.31,5,5,0,0,1,1.62,4.13v9.26H87.53l-.21-1.46a5.76,5.76,0,0,1-2.22,1.32,10.15,10.15,0,0,1-3.19.44A5.8,5.8,0,0,1,78.27,85.34Zm7.07-1.72a4.75,4.75,0,0,0,1.85-1.37V79.73H82.63a3.32,3.32,0,0,0-2.11.54A2.15,2.15,0,0,0,79.87,82a1.77,1.77,0,0,0,.73,1.59,3.89,3.89,0,0,0,2.19.5A6,6,0,0,0,85.34,83.62Z"/><path class="cls-1" d="M91.81,92.79v-2.4a6,6,0,0,0,1.85.3,3.06,3.06,0,0,0,2-.5,2.23,2.23,0,0,0,.56-1.72V74.3H94l.31-2.52h5.16v17a4.48,4.48,0,0,1-1.2,3.3,4.71,4.71,0,0,1-3.48,1.2A8.13,8.13,0,0,1,91.81,92.79ZM95.88,66h3.61v2.73H95.88Z"/><path class="cls-1" d="M104.17,85.34a3.91,3.91,0,0,1-1.46-3.26,4.18,4.18,0,0,1,1.44-3.35,6.52,6.52,0,0,1,4.33-1.23h4.62v-.64a3.6,3.6,0,0,0-.32-1.66,2,2,0,0,0-1.17-.86,8.47,8.47,0,0,0-2.43-.27,14.54,14.54,0,0,0-4.77.76V72.37a13.32,13.32,0,0,1,2.43-.64,17.33,17.33,0,0,1,2.94-.24,7.63,7.63,0,0,1,4.85,1.31,5,5,0,0,1,1.62,4.13v9.26h-2.82l-.21-1.46A5.76,5.76,0,0,1,111,86.05a10.15,10.15,0,0,1-3.19.44A5.78,5.78,0,0,1,104.17,85.34Zm7.08-1.72a4.82,4.82,0,0,0,1.85-1.37V79.73h-4.55a3.32,3.32,0,0,0-2.11.54,2.15,2.15,0,0,0-.65,1.73,1.77,1.77,0,0,0,.73,1.59,3.92,3.92,0,0,0,2.19.5A6,6,0,0,0,111.25,83.62Z"/><path class="cls-1" d="M121.9,86.28a11,11,0,0,1-2.25-.53V83a11.48,11.48,0,0,0,2.23.61,14.3,14.3,0,0,0,2.42.21,7,7,0,0,0,2.46-.3,1.16,1.16,0,0,0,.7-1.19,1.28,1.28,0,0,0-.64-1.17,13.59,13.59,0,0,0-2.4-.93l-.91-.3a9.37,9.37,0,0,1-3.19-1.62,3.37,3.37,0,0,1-1-2.66,3.52,3.52,0,0,1,1.46-3.08,7.85,7.85,0,0,1,4.55-1,13.62,13.62,0,0,1,2.32.19,12.74,12.74,0,0,1,2,.45v2.77a10,10,0,0,0-1.84-.52,11.1,11.1,0,0,0-1.93-.18,7.5,7.5,0,0,0-2.43.29,1.07,1.07,0,0,0-.76,1.08,1.17,1.17,0,0,0,.57,1,12.32,12.32,0,0,0,2.28.9l.67.21a13.35,13.35,0,0,1,2.73,1.11,3.58,3.58,0,0,1,1.41,1.37,4.34,4.34,0,0,1,.44,2.08q0,4.22-6,4.22A23.5,23.5,0,0,1,121.9,86.28Z"/><path class="cls-1" d="M144.71,71.78H150l.15,1.15a8.13,8.13,0,0,1,4.68-1.46,5.26,5.26,0,0,1,2.16.38A3,3,0,0,1,158.3,73a8.71,8.71,0,0,1,5.1-1.55,4.75,4.75,0,0,1,3.71,1.32,5.87,5.87,0,0,1,1.19,4v9.36h-5.62V77.48a2,2,0,0,0-.4-1.38,1.72,1.72,0,0,0-1.3-.41,2.59,2.59,0,0,0-1.06.23,2.65,2.65,0,0,0-.88.62,11.94,11.94,0,0,1,.06,1.52v8.11h-5.29V77.39a2,2,0,0,0-.32-1.31,1.4,1.4,0,0,0-1.14-.39,3,3,0,0,0-2.09,1v9.45h-5.53V71.78Z"/><path class="cls-1" d="M172.11,85a5.72,5.72,0,0,1-1.41-4.17V71.78h5.71V80.4a1.94,1.94,0,0,0,.47,1.43,2,2,0,0,0,1.44.46,3.29,3.29,0,0,0,1.34-.3,3.42,3.42,0,0,0,1.09-.76V71.79h5.71V86.18h-5.34l-.15-1.1a8.28,8.28,0,0,1-4.89,1.4A5.29,5.29,0,0,1,172.11,85Z"/><path class="cls-1" d="M190.91,91.4a7.21,7.21,0,0,1-1.66-.46V87.05a5.23,5.23,0,0,0,1.85.31,3.87,3.87,0,0,0,1.77-.31A3.37,3.37,0,0,0,194,85.84l-6.5-14.06h6l3.37,8.47,3.28-8.47h5.95l-5.32,13a13.9,13.9,0,0,1-3.17,5,6.62,6.62,0,0,1-4.66,1.7A14.62,14.62,0,0,1,190.91,91.4Z"/><path class="cls-1" d="M220.29,74.36h-2.1V71.78h2.1V70a4.88,4.88,0,0,1,1.23-3.49,4.62,4.62,0,0,1,3.53-1.31,8.33,8.33,0,0,1,2.95.52V68.1a5.73,5.73,0,0,0-1.91-.33,3,3,0,0,0-2,.5,2.34,2.34,0,0,0-.54,1.77v1.73h3.76l-.15,2.58h-3.61V86.16h-3.28V74.36Z"/><path class="cls-1" d="M229.59,85a5.8,5.8,0,0,1-1.38-4.17V71.78h3.31v9.08a3.15,3.15,0,0,0,.79,2.37,3.39,3.39,0,0,0,2.43.76,5.67,5.67,0,0,0,2.22-.44,5.79,5.79,0,0,0,1.82-1.23V71.78h3.28V86.17h-3l-.15-1.49a8.41,8.41,0,0,1-5.34,1.79A5.19,5.19,0,0,1,229.59,85Z"/><path class="cls-1" d="M247.34,84.59c-1.36-1.25-2-3.14-2-5.65a7.89,7.89,0,0,1,1.79-5.51,6.86,6.86,0,0,1,5.31-2,6.69,6.69,0,0,1,4.89,1.67,6,6,0,0,1,1.7,4.47v2.67H248.45a3.69,3.69,0,0,0,1.49,2.87,7.37,7.37,0,0,0,3.92.81,12.38,12.38,0,0,0,2.24-.21,11.11,11.11,0,0,0,2-.55v2.43a12.14,12.14,0,0,1-4.92.85A8.31,8.31,0,0,1,247.34,84.59Zm8.75-6.46v-1a3.08,3.08,0,0,0-.85-2.35,3.92,3.92,0,0,0-2.73-.8,4.15,4.15,0,0,0-3.14,1,4.62,4.62,0,0,0-.9,3.19h7.62Z"/><path class="cls-1" d="M262.22,71.78h3l.19,1.67a13.42,13.42,0,0,1,2.46-1.22,13.76,13.76,0,0,1,2.82-.76V74a20.55,20.55,0,0,0-2.82.75,10.34,10.34,0,0,0-2.37,1.05V86.18h-3.31Z"/><path class="cls-1" d="M275.43,85.28a4.69,4.69,0,0,1-1.15-3.39V74.36h-2.13V71.78h2.13V68.47l3.28-1v4.31h3.82l-.21,2.58h-3.61v7.35a2.25,2.25,0,0,0,.56,1.74,2.79,2.79,0,0,0,1.9.5,5.48,5.48,0,0,0,1.73-.3V86a7.7,7.7,0,0,1-2.89.48A4.5,4.5,0,0,1,275.43,85.28Z"/><path class="cls-1" d="M285.81,84.59c-1.35-1.25-2-3.14-2-5.65a7.89,7.89,0,0,1,1.79-5.51,6.85,6.85,0,0,1,5.31-2,6.73,6.73,0,0,1,4.89,1.67,6,6,0,0,1,1.7,4.47v2.67H286.93a3.69,3.69,0,0,0,1.49,2.87,7.33,7.33,0,0,0,3.91.81,12.27,12.27,0,0,0,2.23-.21,11.11,11.11,0,0,0,2-.55v2.43a12.14,12.14,0,0,1-4.92.85A8.3,8.3,0,0,1,285.81,84.59Zm8.75-6.46v-1a3.11,3.11,0,0,0-.85-2.35A3.92,3.92,0,0,0,291,74a4.18,4.18,0,0,0-3.15,1,4.68,4.68,0,0,0-.89,3.19h7.62Z"/><path class="cls-1" d="M302.67,86.28a10.73,10.73,0,0,1-2.24-.53V83a11.48,11.48,0,0,0,2.23.61,14.28,14.28,0,0,0,2.41.21,6.91,6.91,0,0,0,2.46-.3,1.18,1.18,0,0,0,.7-1.19,1.26,1.26,0,0,0-.64-1.17,13.59,13.59,0,0,0-2.4-.93l-.91-.3a9.27,9.27,0,0,1-3.19-1.62,3.37,3.37,0,0,1-1-2.66,3.52,3.52,0,0,1,1.46-3.08,7.85,7.85,0,0,1,4.55-1,13.82,13.82,0,0,1,2.33.19,12.74,12.74,0,0,1,2,.45v2.77a9.78,9.78,0,0,0-1.84-.52,11.1,11.1,0,0,0-1.93-.18,7.5,7.5,0,0,0-2.43.29,1.06,1.06,0,0,0-.76,1.08,1.16,1.16,0,0,0,.58,1,12.14,12.14,0,0,0,2.27.9l.67.21a12.88,12.88,0,0,1,2.73,1.11,3.58,3.58,0,0,1,1.41,1.37,4.34,4.34,0,0,1,.44,2.08q0,4.22-6,4.22A23.34,23.34,0,0,1,302.67,86.28Z"/></g></g></svg>